<?xml version="1.0" encoding="UTF-8"?>
<svg id="Layer_1" data-name="Layer 1" xmlns="http://www.w3.org/2000/svg" viewBox="0 0 567.07 63.23">
  <polygon points="60.36 63.23 98.18 63.23 37.82 12.99 0 12.99 60.36 63.23"/>
  <polygon points="109.45 63.23 147.27 63.23 86.92 12.99 49.09 12.99 109.45 63.23"/>
  <polygon points="158.54 63.23 196.36 63.23 136.01 12.99 98.18 12.99 158.54 63.23"/>
  <polygon points="207.63 63.23 245.46 63.23 185.1 12.99 147.27 12.99 207.63 63.23"/>
  <polygon points="256.72 63.23 294.55 63.23 234.19 12.99 196.36 12.99 256.72 63.23"/>
  <polygon points="283.28 12.99 332.37 53.8 332.37 63.23 305.81 63.23 245.45 12.99 283.28 12.99"/>
  <polygon points="294.55 12.99 332.37 12.99 332.37 44.49 294.55 12.99"/>
  <path d="M395.48,22.89v10.64h19.06l2.03,2.03v5.11c-.79.79-1.23,1.23-2.03,2.03h-19.06v10.64h21.09v5.85c-1.58,1.58-2.47,2.47-4.05,4.05h-25.36c-1.58-1.58-2.47-2.47-4.05-4.05V17.04c1.58-1.58,2.47-2.47,4.05-4.05h25.36c1.58,1.58,2.47,2.47,4.05,4.05v5.85h-21.09Z"/>
  <path d="M456.66,15.01v36.06c-4.75,4.75-7.41,7.41-12.15,12.15h-9.18c-4.75-4.75-7.41-7.41-12.15-12.15V15.01c.79-.79,1.23-1.23,2.03-2.03h7.52c.79.79,1.23,1.23,2.03,2.03v31.46c1.58,1.58,2.47,2.47,4.05,4.05h2.53c1.58-1.58,2.47-2.47,4.05-4.05V15.01c.79-.79,1.23-1.23,2.03-2.03h7.23c.79.79,1.23,1.23,2.03,2.03Z"/>
  <path d="M473.9,54.62v6.58c-.79.79-1.23,1.23-2.03,2.03h-6.58c-.79-.79-1.23-1.23-2.03-2.03v-6.58c.79-.79,1.23-1.23,2.03-2.03h6.58c.79.79,1.23,1.23,2.03,2.03Z"/>
  <path d="M480.5,17.04v42.14c1.58,1.58,2.47,2.47,4.05,4.05h25.38c1.58-1.58,2.47-2.47,4.05-4.05V17.04c-1.58-1.58-2.47-2.47-4.05-4.05h-25.38c-1.58,1.58-2.47,2.47-4.05,4.05ZM505.05,54.31h-15.64v-17.73l15.64,15.64v2.09ZM505.05,39.61l-15.64-15.64v-2.05h15.64v17.69Z"/>
  <path d="M554.08,54.62v6.58c-.79.79-1.23,1.23-2.03,2.03h-19.19c-.79-.79-1.23-1.23-2.03-2.03v-6.58c.79-.79,1.23-1.23,2.03-2.03h2.44c.79-.79,1.23-1.23,2.03-2.03v-24.92c-.79-.79-1.22-1.24-2.03-2.03h-6.58c-.79-.79-1.22-1.24-2.03-2.03v-6.58c.81-.79,1.24-1.24,2.03-2.03h15.19c1.6,1.58,2.47,2.47,4.05,4.05v33.53c.79.79,1.23,1.23,2.03,2.03h2.07c.79.79,1.23,1.23,2.03,2.03Z"/>
  <polyline points="567.07 14.81 567.07 0 552.25 0"/>
  <path d="M376.5,34.07v-17.02l-4.04-4.04h-25.38c-1.58,1.58-2.48,2.46-4.06,4.04v46.18h10.63v-15.33l15.35,15.33h7.51v-7.51l-17.6-17.6h13.55c1.58-1.58,2.46-2.48,4.04-4.06ZM366.84,27.33l-2.3,2.3h-9.49v-8.16h9.49c.9.91,1.41,1.42,2.3,2.32v3.53Z"/>
  <path d="M376.5,17.05l-4.04-4.04h-25.38c-1.58,1.58-2.48,2.46-4.06,4.04"/>
</svg>