0
SECTION
2
HEADER
9
$INSUNITS
70
4
0
ENDSEC
0
SECTION
2
TABLES
0
TABLE
2
LTYPE
0
LTYPE
72
65
70
64
2
CONTINUOUS
3
______
73
0
40
0
0
ENDTAB
0
TABLE
2
LAYER
0
ENDTAB
0
ENDSEC
0
SECTION
2
ENTITIES
0
LINE
8
0
10
64.7381843
20
-139.3642405
11
50.0334046
21
-135.4241066
0
LINE
8
0
10
48.6191909
20
-132.9746169
11
67.2671032
21
-63.3796611
0
LINE
8
0
10
69.7165929
20
-61.9654474
11
85.9019879
21
-66.3023109
0
LINE
8
0
10
86.4791448
20
-66.3695734
11
91.6803537
21
-66.2147201
0
LINE
8
0
10
93.5002201
20
-64.8996462
11
95.609967
21
-59.1031643
0
LINE
8
0
10
98.1733924
20
-57.9078193
11
112.2968787
21
-63.0483479
0
LINE
8
0
10
114.8670502
20
-61.8341759
11
115.1863693
21
-60.9287855
0
LINE
8
0
10
117.7565408
20
-59.7146135
11
131.8643001
21
-64.849418
0
LINE
8
0
10
133.0538797
20
-67.4284808
11
132.3658392
21
-69.2709386
0
LINE
8
0
10
133.5554188
20
-71.8500014
11
148.4741756
21
-77.2799849
0
LINE
8
0
10
149.7603606
20
-78.8155497
11
149.9580573
21
-79.9484292
0
LINE
8
0
10
149.9580573
20
-79.9484292
11
164.8521853
21
-85.3694485
0
LINE
8
0
10
166.0475303
20
-87.9328739
11
141.1109711
21
-156.4455073
0
LINE
8
0
10
141.4445049
20
-158.3985406
11
155.7081534
21
-175.7741141
0
LINE
8
0
10
155.8800792
20
-176.0187823
11
161.3426932
21
-185.1795034
0
LINE
8
0
10
161.5655075
20
-185.7199844
11
165.6187936
21
-201.9768271
0
LINE
8
0
10
164.1620459
20
-204.4012624
11
149.5590954
21
-208.0421869
0
LINE
8
0
10
147.1346601
20
-206.5854392
11
143.1314233
21
-190.5293333
0
LINE
8
0
10
142.6724498
20
-189.6697457
11
128.8994405
21
-174.480033
0
LINE
8
0
10
128.8994405
20
-174.480033
11
127.6447076
21
-172.9771314
0
LINE
8
0
10
127.6447076
20
-172.9771314
11
111.5377158
21
-167.1146658
0
LINE
8
0
10
110.3126683
20
-164.6391396
11
115.4406808
21
-148.2171409
0
LINE
8
0
10
114.2156333
20
-145.7416148
11
107.5447868
21
-143.3136252
0
LINE
8
0
10
106.3552072
20
-140.7345624
11
107.0432477
21
-138.8921046
0
LINE
8
0
10
105.8536681
20
-136.3130418
11
91.7459088
21
-131.1782373
0
LINE
8
0
10
89.1757373
20
-132.3924093
11
88.8564182
21
-133.2977997
0
LINE
8
0
10
86.2862467
20
-134.5119717
11
72.4383654
21
-129.4717551
0
LINE
8
0
10
69.8772485
20
-130.6607906
11
67.132899
21
-138.1227385
0
ARC
8
0
10
50.5510426
20
-133.4922549
40
2
50
165.0000021
51
255.0000021
0
ARC
8
0
10
69.1989549
20
-63.8972991
40
2
50
75.0000021
51
165.0000021
0
ARC
8
0
10
86.419626
20
-64.3704592
40
2
50
255.0000021
51
271.7053398
0
ARC
8
0
10
91.6208349
20
-64.2156059
40
2
50
271.7053398
51
340.0000019
0
ARC
8
0
10
97.4893522
20
-59.7872045
40
2
50
70.0000019
51
160.0000019
0
ARC
8
0
10
112.9809189
20
-61.1689627
40
2
50
250.0000019
51
340.5729386
0
ARC
8
0
10
117.0725006
20
-61.5939987
40
2
50
70.0000019
51
160.5729386
0
ARC
8
0
10
131.1802599
20
-66.7288032
40
2
50
339.522544
51
70.0000019
0
ARC
8
0
10
134.239459
20
-69.9706162
40
2
50
159.522544
51
250.0000019
0
ARC
8
0
10
147.7901354
20
-79.1593701
40
2
50
9.898901
51
70.0000019
0
ARC
8
0
10
164.1681451
20
-87.2488337
40
2
50
340.0000019
51
70.0000019
0
ARC
8
0
10
142.9903563
20
-157.1295476
40
2
50
160.0000019
51
219.3826521
0
ARC
8
0
10
154.162302
20
-177.0431071
40
2
50
30.8079746
51
39.3826521
0
ARC
8
0
10
159.624916
20
-186.2038282
40
2
50
14.0000006
51
30.8079746
0
ARC
8
0
10
163.6782021
20
-202.4606709
40
2
50
284.0000006
51
14.0000006
0
ARC
8
0
10
149.0752516
20
-206.1015954
40
2
50
194.0000006
51
284.0000006
0
ARC
8
0
10
141.1908318
20
-191.0131771
40
2
50
14.0000006
51
42.199623
0
ARC
8
0
10
112.221756
20
-165.2352805
40
2
50
162.658251
51
250.0000019
0
ARC
8
0
10
113.5315931
20
-147.621
40
2
50
342.658251
51
70.0000019
0
ARC
8
0
10
108.228827
20
-141.43424
40
2
50
159.522544
51
250.0000019
0
ARC
8
0
10
105.1696279
20
-138.192427
40
2
50
339.522544
51
70.0000019
0
ARC
8
0
10
91.0618686
20
-133.0576225
40
2
50
70.0000019
51
160.5729386
0
ARC
8
0
10
86.9702869
20
-132.6325865
40
2
50
250.0000019
51
340.5729386
0
ARC
8
0
10
71.7543252
20
-131.3511403
40
2
50
70.0000019
51
159.8075277
0
ARC
8
0
10
65.2558223
20
-137.4323887
40
2
50
255.0000021
51
339.8075277
0
ENDSEC
0
EOF