0
SECTION
2
HEADER
9
$INSUNITS
70
4
0
ENDSEC
0
SECTION
2
TABLES
0
TABLE
2
LTYPE
0
LTYPE
72
65
70
64
2
CONTINUOUS
3
______
73
0
40
0
0
ENDTAB
0
TABLE
2
LAYER
0
ENDTAB
0
ENDSEC
0
SECTION
2
ENTITIES
0
LINE
8
0
10
109.3201377
20
-108.7459775
11
92.3375987
21
-110.2317572
0
LINE
8
0
10
91.2542483
20
-109.3227182
11
84.8003655
21
-35.5545008
0
LINE
8
0
10
85.7094045
20
-34.4711504
11
103.5444543
21
-32.9107857
0
LINE
8
0
10
103.8271319
20
-32.8436891
11
109.4282864
21
-30.6141145
0
LINE
8
0
10
110.0584531
20
-29.6850164
11
110.0584531
21
-21.8382727
0
LINE
8
0
10
111.0584531
20
-20.8382727
11
128.0984031
21
-20.8382727
0
LINE
8
0
10
129.0983531
20
-19.8282732
11
129.0685531
21
-16.8482722
0
LINE
8
0
10
130.0685031
20
-15.8382727
11
147.100085
21
-15.8382727
0
LINE
8
0
10
148.1000503
20
-16.8466057
11
148.0668559
21
-20.8299397
0
LINE
8
0
10
149.0668212
20
-21.8382727
11
166.1134406
21
-21.8382727
0
LINE
8
0
10
167.1134281
20
-22.8332728
11
167.1134781
21
-22.8432726
0
LINE
8
0
10
168.1134656
20
-23.8382727
11
185.1084531
21
-23.8382727
0
LINE
8
0
10
186.1084531
20
-24.8382727
11
186.1084531
21
-71.0371037
0
LINE
8
0
10
186.3007661
20
-71.6267152
11
191.3911401
21
-78.5998302
0
LINE
8
0
10
191.5834531
20
-79.1894417
11
191.5834531
21
-103.2682312
0
LINE
8
0
10
192.1064294
20
-104.1471216
11
206.4828114
21
-111.9500004
0
LINE
8
0
10
206.6377091
20
-112.0538583
11
215.0621607
21
-118.9227209
0
LINE
8
0
10
215.2592769
20
-119.1385605
11
225.2700946
21
-133.9802081
0
LINE
8
0
10
225.0002499
20
-135.3684386
11
210.8651593
21
-144.9026776
0
LINE
8
0
10
209.4769288
20
-144.6328329
11
199.5239545
21
-129.8769416
0
LINE
8
0
10
199.1613093
20
-129.5515566
11
180.8196224
21
-119.8809289
0
LINE
8
0
10
180.7838641
20
-119.8611312
11
179.3413223
21
-119.0234925
0
LINE
8
0
10
178.8391716
20
-118.8882727
11
161.0584531
21
-118.8882727
0
LINE
8
0
10
160.0584531
20
-117.8882727
11
160.0584531
21
-98.842448
0
LINE
8
0
10
159.0542865
20
-97.8424567
11
149.0710229
21
-97.8840537
0
LINE
8
0
10
148.066891
20
-96.8757294
11
148.1000503
21
-92.8966057
0
LINE
8
0
10
147.100085
20
-91.8882727
11
130.0685031
21
-91.8882727
0
LINE
8
0
10
129.0685531
20
-92.8982722
11
129.0983531
21
-95.8782732
0
LINE
8
0
10
128.0984031
20
-96.8882727
11
110.3525996
21
-96.8882727
0
LINE
8
0
10
109.3566337
20
-97.9780053
11
110.2289479
21
-107.6600502
0
ARC
8
0
10
92.250443
20
-109.2355625
40
1
50
184.9999976
51
274.9999976
0
ARC
8
0
10
85.7965602
20
-35.4673451
40
1
50
94.9999976
51
184.9999976
0
ARC
8
0
10
103.4572986
20
-31.914591
40
1
50
274.9999976
51
291.7053374
0
ARC
8
0
10
109.0584531
20
-29.6850164
40
1
50
291.7053374
51
0
0
ARC
8
0
10
111.0584531
20
-21.8382727
40
1
50
90
51
180
0
ARC
8
0
10
128.0984031
20
-19.8382727
40
1
50
270
51
0.5729387
0
ARC
8
0
10
130.0685031
20
-16.8382727
40
1
50
90
51
180.5729387
0
ARC
8
0
10
147.100085
20
-16.8382727
40
1
50
359.5225488
51
90
0
ARC
8
0
10
149.0668212
20
-20.8382727
40
1
50
179.5225488
51
270
0
ARC
8
0
10
166.1134406
20
-22.8382727
40
1
50
0.2864744
51
90
0
ARC
8
0
10
168.1134656
20
-22.8382727
40
1
50
180.2864744
51
270
0
ARC
8
0
10
185.1084531
20
-24.8382727
40
1
50
0
51
90
0
ARC
8
0
10
187.1084531
20
-71.0371037
40
1
50
180
51
216.1294437
0
ARC
8
0
10
190.5834531
20
-79.1894417
40
1
50
0
51
36.1294437
0
ARC
8
0
10
192.5834531
20
-103.2682312
40
1
50
180
51
241.5088042
0
ARC
8
0
10
206.0057877
20
-112.8288908
40
1
50
50.8079781
51
61.5088042
0
ARC
8
0
10
214.4302393
20
-119.6977534
40
1
50
33.999999
51
50.8079781
0
ARC
8
0
10
224.441057
20
-134.539401
40
1
50
303.999999
51
33.999999
0
ARC
8
0
10
210.3059664
20
-144.07364
40
1
50
213.999999
51
303.999999
0
ARC
8
0
10
198.6949169
20
-130.4361345
40
1
50
33.999999
51
62.1996259
0
ARC
8
0
10
181.2860148
20
-118.996351
40
1
50
239.8576105
51
242.1996259
0
ARC
8
0
10
178.8391716
20
-119.8882727
40
1
50
59.8576105
51
90
0
ARC
8
0
10
161.0584531
20
-117.8882727
40
1
50
180
51
270
0
ARC
8
0
10
159.0584531
20
-98.842448
40
1
50
0
51
90.2387293
0
ARC
8
0
10
149.0668563
20
-96.8840624
40
1
50
179.5225488
51
270.2387293
0
ARC
8
0
10
147.100085
20
-92.8882727
40
1
50
359.5225488
51
90
0
ARC
8
0
10
130.0685031
20
-92.8882727
40
1
50
90
51
180.5729387
0
ARC
8
0
10
128.0984031
20
-95.8882727
40
1
50
270
51
0.5729387
0
ARC
8
0
10
110.3525996
20
-97.8882727
40
1
50
90
51
185.1482239
0
ARC
8
0
10
109.232982
20
-107.7497828
40
1
50
274.9999976
51
5.1482239
0
ENDSEC
0
EOF