0
SECTION
2
HEADER
9
$INSUNITS
70
4
0
ENDSEC
0
SECTION
2
TABLES
0
TABLE
2
LTYPE
0
LTYPE
72
65
70
64
2
CONTINUOUS
3
______
73
0
40
0
0
ENDTAB
0
TABLE
2
LAYER
0
ENDTAB
0
ENDSEC
0
SECTION
2
ENTITIES
0
LINE
8
0
10
91.341404
20
-110.3189129
11
110.3189129
21
-108.658596
0
LINE
8
0
10
103.6907187
20
-32.8979892
11
110.3189129
21
-108.658596
0
LINE
8
0
10
108.658596
20
-89.6810871
11
89.6810871
21
-91.341404
0
LINE
8
0
10
84.7132098
20
-34.5583061
11
91.341404
21
-110.3189129
0
LINE
8
0
10
89.6854449
20
-91.3912136
11
108.6629538
21
-89.7308967
0
LINE
8
0
10
107.0026369
20
-70.7533878
11
88.025128
21
-72.4137047
0
LINE
8
0
10
88.0294858
20
-72.4635143
11
107.0069947
21
-70.8031974
0
LINE
8
0
10
105.3466778
20
-51.8256885
11
86.3691689
21
-53.4860054
0
LINE
8
0
10
86.3735267
20
-53.535815
11
105.3510356
21
-51.8754981
0
LINE
8
0
10
103.6907187
20
-32.8979892
11
84.7132098
21
-34.5583061
0
LINE
8
0
10
110.0584531
20
-96.8882727
11
129.1084531
21
-96.8882727
0
LINE
8
0
10
129.1084531
20
-96.8882727
11
129.1084531
21
-20.8382727
0
LINE
8
0
10
129.1084531
20
-77.8382727
11
110.0584531
21
-77.8382727
0
LINE
8
0
10
110.0584531
20
-96.8882727
11
110.0584531
21
-20.8382727
0
LINE
8
0
10
110.0584531
20
-77.8882727
11
129.1084531
21
-77.8882727
0
LINE
8
0
10
129.1084531
20
-58.8382727
11
110.0584531
21
-58.8382727
0
LINE
8
0
10
110.0584531
20
-58.8882727
11
129.1084531
21
-58.8882727
0
LINE
8
0
10
129.1084531
20
-39.8382727
11
110.0584531
21
-39.8382727
0
LINE
8
0
10
110.0584531
20
-39.8882727
11
129.1084531
21
-39.8882727
0
LINE
8
0
10
129.1084531
20
-20.8382727
11
110.0584531
21
-20.8382727
0
LINE
8
0
10
129.0584531
20
-91.8882727
11
148.1084531
21
-91.8882727
0
LINE
8
0
10
148.1084531
20
-91.8882727
11
148.1084531
21
-15.8382727
0
LINE
8
0
10
148.1084531
20
-72.8382727
11
129.0584531
21
-72.8382727
0
LINE
8
0
10
129.0584531
20
-91.8882727
11
129.0584531
21
-15.8382727
0
LINE
8
0
10
129.0584531
20
-72.8882727
11
148.1084531
21
-72.8882727
0
LINE
8
0
10
148.1084531
20
-53.8382727
11
129.0584531
21
-53.8382727
0
LINE
8
0
10
129.0584531
20
-53.8882727
11
148.1084531
21
-53.8882727
0
LINE
8
0
10
148.1084531
20
-34.8382727
11
129.0584531
21
-34.8382727
0
LINE
8
0
10
129.0584531
20
-34.8882727
11
148.1084531
21
-34.8882727
0
LINE
8
0
10
148.1084531
20
-15.8382727
11
129.0584531
21
-15.8382727
0
LINE
8
0
10
148.0584531
20
-97.8882727
11
167.1084531
21
-97.8882727
0
LINE
8
0
10
167.1084531
20
-97.8882727
11
167.1084531
21
-21.8382727
0
LINE
8
0
10
167.1084531
20
-78.8382727
11
148.0584531
21
-78.8382727
0
LINE
8
0
10
148.0584531
20
-97.8882727
11
148.0584531
21
-21.8382727
0
LINE
8
0
10
148.0584531
20
-78.8882727
11
167.1084531
21
-78.8882727
0
LINE
8
0
10
167.1084531
20
-59.8382727
11
148.0584531
21
-59.8382727
0
LINE
8
0
10
148.0584531
20
-59.8882727
11
167.1084531
21
-59.8882727
0
LINE
8
0
10
167.1084531
20
-40.8382727
11
148.0584531
21
-40.8382727
0
LINE
8
0
10
148.0584531
20
-40.8882727
11
167.1084531
21
-40.8882727
0
LINE
8
0
10
167.1084531
20
-21.8382727
11
148.0584531
21
-21.8382727
0
LINE
8
0
10
167.0584531
20
-99.8882727
11
186.1084531
21
-99.8882727
0
LINE
8
0
10
186.1084531
20
-99.8882727
11
186.1084531
21
-23.8382727
0
LINE
8
0
10
186.1084531
20
-80.8382727
11
167.0584531
21
-80.8382727
0
LINE
8
0
10
167.0584531
20
-99.8882727
11
167.0584531
21
-23.8382727
0
LINE
8
0
10
167.0584531
20
-80.8882727
11
186.1084531
21
-80.8882727
0
LINE
8
0
10
186.1084531
20
-61.8382727
11
167.0584531
21
-61.8382727
0
LINE
8
0
10
167.0584531
20
-61.8882727
11
186.1084531
21
-61.8882727
0
LINE
8
0
10
186.1084531
20
-42.8382727
11
167.0584531
21
-42.8382727
0
LINE
8
0
10
167.0584531
20
-42.8882727
11
186.1084531
21
-42.8882727
0
LINE
8
0
10
186.1084531
20
-23.8382727
11
167.0584531
21
-23.8382727
0
LINE
8
0
10
160.0584531
20
-118.8882727
11
179.1084531
21
-118.8882727
0
LINE
8
0
10
179.1084531
20
-118.8882727
11
179.1084531
21
-99.8382727
0
LINE
8
0
10
179.1084531
20
-99.8382727
11
160.0584531
21
-99.8382727
0
LINE
8
0
10
160.0584531
20
-99.8382727
11
160.0584531
21
-118.8882727
0
LINE
8
0
10
180.8015389
20
-119.8713944
11
197.6216906
21
-128.8148277
0
LINE
8
0
10
197.6216906
20
-128.8148277
11
206.5651239
21
-111.994676
0
LINE
8
0
10
206.5651239
20
-111.994676
11
189.7449722
21
-103.0512427
0
LINE
8
0
10
189.7449722
20
-103.0512427
11
180.8015389
21
-119.8713944
0
LINE
8
0
10
199.3834969
20
-129.6687047
11
210.0361217
21
-145.4618705
0
LINE
8
0
10
210.0361217
20
-145.4618705
11
225.8292875
21
-134.8092457
0
LINE
8
0
10
225.8292875
20
-134.8092457
11
215.1766627
21
-119.0160799
0
LINE
8
0
10
215.1766627
20
-119.0160799
11
199.3834969
21
-129.6687047
0
LINE
8
0
10
186.6334531
20
-106.8632727
11
204.6334531
21
-106.8632727
0
LINE
8
0
10
204.6334531
20
-106.8632727
11
204.6334531
21
-73.8632727
0
LINE
8
0
10
204.6334531
20
-73.8632727
11
186.6334531
21
-73.8632727
0
LINE
8
0
10
186.6334531
20
-73.8632727
11
186.6334531
21
-106.8632727
0
ENDSEC
0
EOF