0
SECTION
2
HEADER
9
$INSUNITS
70
4
0
ENDSEC
0
SECTION
2
TABLES
0
TABLE
2
LTYPE
0
LTYPE
72
65
70
64
2
CONTINUOUS
3
______
73
0
40
0
0
ENDTAB
0
TABLE
2
LAYER
0
ENDTAB
0
ENDSEC
0
SECTION
2
ENTITIES
0
LINE
8
0
10
109.3201377
20
-108.7459775
11
92.3375987
21
-110.2317572
0
LINE
8
0
10
91.2542483
20
-109.3227182
11
83.8003066
21
-24.1237755
0
LINE
8
0
10
84.7099543
20
-23.040372
11
110.0152613
21
-20.8420249
0
LINE
8
0
10
110.1018083
20
-20.8382727
11
128.0984031
21
-20.8382727
0
LINE
8
0
10
129.0983531
20
-19.8282732
11
129.0685531
21
-16.8482722
0
LINE
8
0
10
130.0685031
20
-15.8382727
11
147.100085
21
-15.8382727
0
LINE
8
0
10
148.1000503
20
-16.8466057
11
148.0668559
21
-20.8299397
0
LINE
8
0
10
149.0668212
20
-21.8382727
11
166.1134406
21
-21.8382727
0
LINE
8
0
10
167.1134281
20
-22.8332728
11
167.1134781
21
-22.8432726
0
LINE
8
0
10
168.1134656
20
-23.8382727
11
185.1084531
21
-23.8382727
0
LINE
8
0
10
186.1084531
20
-24.8382727
11
186.1084531
21
-99.4989872
0
LINE
8
0
10
186.3716532
20
-100.1750981
11
192.0372911
21
-106.3492942
0
LINE
8
0
10
192.4468163
20
-106.6181125
11
198.762824
21
-108.8056517
0
LINE
8
0
10
198.9203589
20
-108.8759612
11
214.631521
21
-117.5848005
0
LINE
8
0
10
215.0213311
20
-118.9442298
11
206.7553271
21
-133.8564958
0
LINE
8
0
10
205.3958978
20
-134.2463059
11
189.7246713
21
-125.5596033
0
LINE
8
0
10
189.480664
20
-125.4636488
11
169.1209779
21
-120.4123499
0
LINE
8
0
10
169.1097454
20
-120.4094939
11
167.232403
21
-119.9205545
0
LINE
8
0
10
166.9803682
20
-119.8882727
11
149.0584531
21
-119.8882727
0
LINE
8
0
10
148.0584531
20
-118.8882727
11
148.0584531
21
-97.8882727
0
LINE
8
0
10
148.0584531
20
-97.8882727
11
148.1000503
21
-92.8966057
0
LINE
8
0
10
147.100085
20
-91.8882727
11
130.0685031
21
-91.8882727
0
LINE
8
0
10
129.0685531
20
-92.8982722
11
129.0983531
21
-95.8782732
0
LINE
8
0
10
128.0984031
20
-96.8882727
11
110.3525996
21
-96.8882727
0
LINE
8
0
10
109.3566337
20
-97.9780053
11
110.2289479
21
-107.6600502
0
ARC
8
0
10
92.250443
20
-109.2355625
40
1
50
184.9999976
51
274.9999976
0
ARC
8
0
10
84.7965013
20
-24.0366198
40
1
50
94.9649892
51
184.9999976
0
ARC
8
0
10
110.1018083
20
-21.8382727
40
1
50
90
51
94.9649892
0
ARC
8
0
10
128.0984031
20
-19.8382727
40
1
50
270
51
0.5729387
0
ARC
8
0
10
130.0685031
20
-16.8382727
40
1
50
90
51
180.5729387
0
ARC
8
0
10
147.100085
20
-16.8382727
40
1
50
359.5225488
51
90
0
ARC
8
0
10
149.0668212
20
-20.8382727
40
1
50
179.5225488
51
270
0
ARC
8
0
10
166.1134406
20
-22.8382727
40
1
50
0.2864744
51
90
0
ARC
8
0
10
168.1134656
20
-22.8382727
40
1
50
180.2864744
51
270
0
ARC
8
0
10
185.1084531
20
-24.8382727
40
1
50
0
51
90
0
ARC
8
0
10
187.1084531
20
-99.4989872
40
1
50
180
51
222.5404764
0
ARC
8
0
10
192.774091
20
-105.6731833
40
1
50
222.5404764
51
250.8965551
0
ARC
8
0
10
198.4355493
20
-109.7505809
40
1
50
61.0000008
51
70.8965551
0
ARC
8
0
10
214.1467114
20
-118.4594202
40
1
50
331.0000008
51
61.0000008
0
ARC
8
0
10
205.8807074
20
-133.3716862
40
1
50
241.0000008
51
331.0000008
0
ARC
8
0
10
189.2398617
20
-126.434223
40
1
50
61.0000008
51
76.0661026
0
ARC
8
0
10
169.3617802
20
-119.4417757
40
1
50
255.4020465
51
256.0661026
0
ARC
8
0
10
166.9803682
20
-120.8882727
40
1
50
75.4020465
51
90
0
ARC
8
0
10
149.0584531
20
-118.8882727
40
1
50
180
51
270
0
ARC
8
0
10
147.100085
20
-92.8882727
40
1
50
359.5225488
51
90
0
ARC
8
0
10
130.0685031
20
-92.8882727
40
1
50
90
51
180.5729387
0
ARC
8
0
10
128.0984031
20
-95.8882727
40
1
50
270
51
0.5729387
0
ARC
8
0
10
110.3525996
20
-97.8882727
40
1
50
90
51
185.1482239
0
ARC
8
0
10
109.232982
20
-107.7497828
40
1
50
274.9999976
51
5.1482239
0
ENDSEC
0
EOF