0
SECTION
2
HEADER
9
$INSUNITS
70
4
0
ENDSEC
0
SECTION
2
TABLES
0
TABLE
2
LTYPE
0
LTYPE
72
65
70
64
2
CONTINUOUS
3
______
73
0
40
0
0
ENDTAB
0
TABLE
2
LAYER
0
ENDTAB
0
ENDSEC
0
SECTION
2
ENTITIES
0
LINE
8
0
10
48.1015528
20
-134.9064685
11
66.5024398
21
-139.8369713
0
LINE
8
0
10
48.1015528
20
-134.9064685
11
67.7847413
21
-61.4478093
0
LINE
8
0
10
67.7847413
20
-61.4478093
11
86.1856283
21
-66.3783121
0
LINE
8
0
10
86.4791448
20
-66.3695734
11
91.6803537
21
-66.2147201
0
LINE
8
0
10
70.2833753
20
-128.6874028
11
96.2940073
21
-57.223779
0
LINE
8
0
10
96.2940073
20
-57.223779
11
114.1951517
21
-63.7392628
0
LINE
8
0
10
114.8670502
20
-61.8341759
11
115.1863693
21
-60.9287855
0
LINE
8
0
10
115.8582678
20
-59.0236986
11
133.7594122
21
-65.5391824
0
LINE
8
0
10
133.0538797
20
-67.4284808
11
132.3658392
21
-69.2709386
0
LINE
8
0
10
131.6603067
20
-71.160237
11
149.5614511
21
-77.6757208
0
LINE
8
0
10
149.7603606
20
-78.8155497
11
149.9580573
21
-79.9484292
0
LINE
8
0
10
148.8304262
20
-79.538005
11
166.7315706
21
-86.0534888
0
LINE
8
0
10
140.7209387
20
-157.5171126
11
166.7315706
21
-86.0534888
0
LINE
8
0
10
141.4445049
20
-158.3985406
11
155.7081534
21
-175.7741141
0
LINE
8
0
10
155.8800792
20
-176.0187823
11
161.3426932
21
-185.1795034
0
LINE
8
0
10
161.4940253
20
-185.4332851
11
166.1026374
21
-203.9174186
0
LINE
8
0
10
147.6185039
20
-208.5260307
11
166.1026374
21
-203.9174186
0
LINE
8
0
10
143.0098918
20
-190.0418972
11
147.6185039
21
-208.5260307
0
LINE
8
0
10
142.6724498
20
-189.6697457
11
128.8994405
21
-174.480033
0
LINE
8
0
10
128.8994405
20
-174.480033
11
127.6447076
21
-172.9771314
0
LINE
8
0
10
109.7435632
20
-166.4616476
11
127.6447076
21
-172.9771314
0
LINE
8
0
10
110.3126683
20
-164.6391396
11
115.4406808
21
-148.2171409
0
LINE
8
0
10
105.6496747
20
-142.6238608
11
123.5508191
21
-149.1393446
0
LINE
8
0
10
106.3552072
20
-140.7345624
11
107.0432477
21
-138.8921046
0
LINE
8
0
10
89.8476358
20
-130.4873224
11
107.7487802
21
-137.0028062
0
LINE
8
0
10
89.1757373
20
-132.3924093
11
88.8564182
21
-133.2977997
0
LINE
8
0
10
70.2833753
20
-128.6874028
11
88.1845197
21
-135.2028866
0
LINE
8
0
10
69.8772485
20
-130.6607906
11
67.132899
21
-138.1227385
0
ARC
8
0
10
50.5510426
20
-133.4922549
40
2
50
165.0000021
51
255.0000021
0
ARC
8
0
10
69.1989549
20
-63.8972991
40
2
50
75.0000021
51
165.0000021
0
ARC
8
0
10
86.419626
20
-64.3704592
40
2
50
255.0000021
51
271.7053398
0
ARC
8
0
10
91.6208349
20
-64.2156059
40
2
50
271.7053398
51
340.0000019
0
ARC
8
0
10
97.4893522
20
-59.7872045
40
2
50
70.0000019
51
160.0000019
0
ARC
8
0
10
112.9809189
20
-61.1689627
40
2
50
250.0000019
51
340.5729386
0
ARC
8
0
10
117.0725006
20
-61.5939987
40
2
50
70.0000019
51
160.5729386
0
ARC
8
0
10
131.1802599
20
-66.7288032
40
2
50
339.522544
51
70.0000019
0
ARC
8
0
10
134.239459
20
-69.9706162
40
2
50
159.522544
51
250.0000019
0
ARC
8
0
10
147.7901354
20
-79.1593701
40
2
50
9.898901
51
70.0000019
0
ARC
8
0
10
164.1681451
20
-87.2488337
40
2
50
340.0000019
51
70.0000019
0
ARC
8
0
10
142.9903563
20
-157.1295476
40
2
50
160.0000019
51
219.3826521
0
ARC
8
0
10
154.162302
20
-177.0431071
40
2
50
30.8079746
51
39.3826521
0
ARC
8
0
10
159.624916
20
-186.2038282
40
2
50
14.0000006
51
30.8079746
0
ARC
8
0
10
163.6782021
20
-202.4606709
40
2
50
284.0000006
51
14.0000006
0
ARC
8
0
10
149.0752516
20
-206.1015954
40
2
50
194.0000006
51
284.0000006
0
ARC
8
0
10
141.1908318
20
-191.0131771
40
2
50
14.0000006
51
42.199623
0
ARC
8
0
10
112.221756
20
-165.2352805
40
2
50
162.658251
51
250.0000019
0
ARC
8
0
10
113.5315931
20
-147.621
40
2
50
342.658251
51
70.0000019
0
ARC
8
0
10
108.228827
20
-141.43424
40
2
50
159.522544
51
250.0000019
0
ARC
8
0
10
105.1696279
20
-138.192427
40
2
50
339.522544
51
70.0000019
0
ARC
8
0
10
91.0618686
20
-133.0576225
40
2
50
70.0000019
51
160.5729386
0
ARC
8
0
10
86.9702869
20
-132.6325865
40
2
50
250.0000019
51
340.5729386
0
ARC
8
0
10
71.7543252
20
-131.3511403
40
2
50
70.0000019
51
159.8075277
0
ARC
8
0
10
65.2558223
20
-137.4323887
40
2
50
255.0000021
51
339.8075277
0
LINE
8
0
10
66.5024398
20
-139.8369713
11
86.1856283
21
-66.3783121
0
LINE
8
0
10
71.4329426
20
-121.4360843
11
53.0320556
21
-116.5055815
0
LINE
8
0
10
53.0191147
20
-116.5538778
11
71.4200017
21
-121.4843806
0
LINE
8
0
10
76.3505045
20
-103.0834936
11
57.9496175
21
-98.1529908
0
LINE
8
0
10
57.9366766
20
-98.2012871
11
76.3375636
21
-103.1317899
0
LINE
8
0
10
81.2680664
20
-84.7309029
11
62.8671794
21
-79.8004001
0
LINE
8
0
10
62.8542385
20
-79.8486963
11
81.2551255
21
-84.7791991
0
LINE
8
0
10
88.1845197
20
-135.2028866
11
114.1951517
21
-63.7392628
0
LINE
8
0
10
94.7000035
20
-117.3017422
11
76.7988591
21
-110.7862584
0
LINE
8
0
10
76.781758
20
-110.833243
11
94.6829024
21
-117.3487268
0
LINE
8
0
10
101.1983862
20
-99.4475824
11
83.2972418
21
-92.9320986
0
LINE
8
0
10
83.2801407
20
-92.9790832
11
101.1812851
21
-99.494567
0
LINE
8
0
10
107.6967689
20
-81.5934226
11
89.7956245
21
-75.0779388
0
LINE
8
0
10
89.7785235
20
-75.1249234
11
107.6796679
21
-81.6404072
0
LINE
8
0
10
107.7487802
20
-137.0028062
11
133.7594122
21
-65.5391824
0
LINE
8
0
10
114.264264
20
-119.1016618
11
96.3631196
21
-112.586178
0
LINE
8
0
10
89.8476358
20
-130.4873224
11
115.8582678
21
-59.0236986
0
LINE
8
0
10
96.3460185
20
-112.6331626
11
114.2471629
21
-119.1486464
0
LINE
8
0
10
120.7626467
20
-101.247502
11
102.8615023
21
-94.7320182
0
LINE
8
0
10
102.8444013
20
-94.7790028
11
120.7455457
21
-101.2944866
0
LINE
8
0
10
127.2610295
20
-83.3933422
11
109.3598851
21
-76.8778584
0
LINE
8
0
10
109.342784
20
-76.924843
11
127.2439284
21
-83.4403268
0
LINE
8
0
10
123.5508191
20
-149.1393446
11
149.5614511
21
-77.6757208
0
LINE
8
0
10
130.0663029
20
-131.2382002
11
112.1651585
21
-124.7227164
0
LINE
8
0
10
105.6496747
20
-142.6238608
11
131.6603067
21
-71.160237
0
LINE
8
0
10
112.1480575
20
-124.769701
11
130.0492019
21
-131.2851848
0
LINE
8
0
10
136.5646857
20
-113.3840404
11
118.6635413
21
-106.8685566
0
LINE
8
0
10
118.6464402
20
-106.9155412
11
136.5475846
21
-113.431025
0
LINE
8
0
10
143.0630684
20
-95.5298806
11
125.161924
21
-89.0143968
0
LINE
8
0
10
125.1448229
20
-89.0613814
11
143.0459673
21
-95.5768652
0
LINE
8
0
10
122.8197943
20
-151.0016288
11
140.7209387
21
-157.5171126
0
LINE
8
0
10
147.2364225
20
-139.6159682
11
129.3352781
21
-133.1004844
0
LINE
8
0
10
122.8197943
20
-151.0016288
11
148.8304262
21
-79.538005
0
LINE
8
0
10
129.318177
20
-133.147469
11
147.2193214
21
-139.6629528
0
LINE
8
0
10
153.7348052
20
-121.7618084
11
135.8336608
21
-115.2463246
0
LINE
8
0
10
135.8165597
20
-115.2933092
11
153.7177041
21
-121.808793
0
LINE
8
0
10
160.2331879
20
-103.9076486
11
142.3320435
21
-97.3921648
0
LINE
8
0
10
142.3149424
20
-97.4391494
11
160.2160868
21
-103.9546332
0
LINE
8
0
10
127.6447076
20
-172.9771314
11
134.1601914
21
-155.075987
0
LINE
8
0
10
134.1601914
20
-155.075987
11
116.259047
21
-148.5605032
0
LINE
8
0
10
116.259047
20
-148.5605032
11
109.7435632
21
-166.4616476
0
LINE
8
0
10
128.8994405
20
-174.480033
11
141.6463786
21
-188.6369419
0
LINE
8
0
10
141.6463786
20
-188.6369419
11
155.8032875
21
-175.8900038
0
LINE
8
0
10
155.8032875
20
-175.8900038
11
143.0563494
21
-161.7330949
0
LINE
8
0
10
143.0563494
20
-161.7330949
11
128.8994405
21
-174.480033
0
LINE
8
0
10
161.4940253
20
-185.4332851
11
143.0098918
21
-190.0418972
0
LINE
8
0
10
286.6201572
20
-139.8369713
11
305.0210442
21
-134.9064685
0
LINE
8
0
10
285.3378557
20
-61.4478093
11
305.0210442
21
-134.9064685
0
LINE
8
0
10
300.0905414
20
-116.5055815
11
281.6896544
21
-121.4360843
0
LINE
8
0
10
266.9369687
20
-66.3783121
11
286.6201572
21
-139.8369713
0
LINE
8
0
10
281.7025953
20
-121.4843806
11
300.1034823
21
-116.5538778
0
LINE
8
0
10
295.1729795
20
-98.1529908
11
276.7720925
21
-103.0834936
0
LINE
8
0
10
276.7850334
20
-103.1317899
11
295.1859204
21
-98.2012871
0
LINE
8
0
10
290.2554176
20
-79.8004001
11
271.8545306
21
-84.7309029
0
LINE
8
0
10
271.8674715
20
-84.7791991
11
290.2683585
21
-79.8486963
0
LINE
8
0
10
285.3378557
20
-61.4478093
11
266.9369687
21
-66.3783121
0
LINE
8
0
10
264.9380773
20
-135.2028866
11
282.8392217
21
-128.6874028
0
LINE
8
0
10
256.8285897
20
-57.223779
11
282.8392217
21
-128.6874028
0
LINE
8
0
10
276.3237379
20
-110.7862584
11
258.4225935
21
-117.3017422
0
LINE
8
0
10
238.9274453
20
-63.7392628
11
264.9380773
21
-135.2028866
0
LINE
8
0
10
258.4396946
20
-117.3487268
11
276.340839
21
-110.833243
0
LINE
8
0
10
269.8253552
20
-92.9320986
11
251.9242108
21
-99.4475824
0
LINE
8
0
10
251.9413119
20
-99.494567
11
269.8424563
21
-92.9790832
0
LINE
8
0
10
263.3269725
20
-75.0779388
11
245.4258281
21
-81.5934226
0
LINE
8
0
10
245.4429291
20
-81.6404072
11
263.3440735
21
-75.1249234
0
LINE
8
0
10
256.8285897
20
-57.223779
11
238.9274453
21
-63.7392628
0
LINE
8
0
10
245.3738168
20
-137.0028062
11
263.2749612
21
-130.4873224
0
LINE
8
0
10
237.2643292
20
-59.0236986
11
263.2749612
21
-130.4873224
0
LINE
8
0
10
256.7594774
20
-112.586178
11
238.858333
21
-119.1016618
0
LINE
8
0
10
219.3631848
20
-65.5391824
11
245.3738168
21
-137.0028062
0
LINE
8
0
10
238.8754341
20
-119.1486464
11
256.7765785
21
-112.6331626
0
LINE
8
0
10
250.2610947
20
-94.7320182
11
232.3599503
21
-101.247502
0
LINE
8
0
10
232.3770513
20
-101.2944866
11
250.2781957
21
-94.7790028
0
LINE
8
0
10
243.7627119
20
-76.8778584
11
225.8615675
21
-83.3933422
0
LINE
8
0
10
225.8786686
20
-83.4403268
11
243.779813
21
-76.924843
0
LINE
8
0
10
237.2643292
20
-59.0236986
11
219.3631848
21
-65.5391824
0
LINE
8
0
10
229.5717779
20
-149.1393446
11
247.4729223
21
-142.6238608
0
LINE
8
0
10
221.4622903
20
-71.160237
11
247.4729223
21
-142.6238608
0
LINE
8
0
10
240.9574385
20
-124.7227164
11
223.0562941
21
-131.2382002
0
LINE
8
0
10
203.5611459
20
-77.6757208
11
229.5717779
21
-149.1393446
0
LINE
8
0
10
223.0733951
20
-131.2851848
11
240.9745395
21
-124.769701
0
LINE
8
0
10
234.4590557
20
-106.8685566
11
216.5579113
21
-113.3840404
0
LINE
8
0
10
216.5750124
20
-113.431025
11
234.4761568
21
-106.9155412
0
LINE
8
0
10
227.960673
20
-89.0143968
11
210.0595286
21
-95.5298806
0
LINE
8
0
10
210.0766297
20
-95.5768652
11
227.9777741
21
-89.0613814
0
LINE
8
0
10
221.4622903
20
-71.160237
11
203.5611459
21
-77.6757208
0
LINE
8
0
10
212.4016583
20
-157.5171126
11
230.3028027
21
-151.0016288
0
LINE
8
0
10
204.2921708
20
-79.538005
11
230.3028027
21
-151.0016288
0
LINE
8
0
10
223.7873189
20
-133.1004844
11
205.8861745
21
-139.6159682
0
LINE
8
0
10
186.3910264
20
-86.0534888
11
212.4016583
21
-157.5171126
0
LINE
8
0
10
205.9032756
20
-139.6629528
11
223.80442
21
-133.147469
0
LINE
8
0
10
217.2889362
20
-115.2463246
11
199.3877918
21
-121.7618084
0
LINE
8
0
10
199.4048929
20
-121.808793
11
217.3060373
21
-115.2933092
0
LINE
8
0
10
210.7905535
20
-97.3921648
11
192.8894091
21
-103.9076486
0
LINE
8
0
10
192.9065102
20
-103.9546332
11
210.8076546
21
-97.4391494
0
LINE
8
0
10
204.2921708
20
-79.538005
11
186.3910264
21
-86.0534888
0
LINE
8
0
10
225.4778894
20
-172.9771314
11
243.3790338
21
-166.4616476
0
LINE
8
0
10
243.3790338
20
-166.4616476
11
236.86355
21
-148.5605032
0
LINE
8
0
10
236.86355
20
-148.5605032
11
218.9624056
21
-155.075987
0
LINE
8
0
10
218.9624056
20
-155.075987
11
225.4778894
21
-172.9771314
0
LINE
8
0
10
211.4762184
20
-188.6369419
11
224.2231565
21
-174.480033
0
LINE
8
0
10
224.2231565
20
-174.480033
11
210.0662476
21
-161.7330949
0
LINE
8
0
10
210.0662476
20
-161.7330949
11
197.3193095
21
-175.8900038
0
LINE
8
0
10
197.3193095
20
-175.8900038
11
211.4762184
21
-188.6369419
0
LINE
8
0
10
205.5040931
20
-208.5260307
11
210.1127052
21
-190.0418972
0
LINE
8
0
10
210.1127052
20
-190.0418972
11
191.6285717
21
-185.4332851
0
LINE
8
0
10
191.6285717
20
-185.4332851
11
187.0199596
21
-203.9174186
0
LINE
8
0
10
187.0199596
20
-203.9174186
11
205.5040931
21
-208.5260307
0
ENDSEC
0
EOF