0
SECTION
2
HEADER
9
$INSUNITS
70
4
0
ENDSEC
0
SECTION
2
TABLES
0
TABLE
2
LTYPE
0
LTYPE
72
65
70
64
2
CONTINUOUS
3
______
73
0
40
0
0
ENDTAB
0
TABLE
2
LAYER
0
ENDTAB
0
ENDSEC
0
SECTION
2
ENTITIES
0
LINE
8
0
10
90.8132201
20
-109.8516153
11
109.8516153
21
-109.1867799
0
LINE
8
0
10
107.1975087
20
-33.1831076
11
109.8516153
21
-109.1867799
0
LINE
8
0
10
109.1867799
20
-90.1483847
11
90.1483847
21
-90.8132201
0
LINE
8
0
10
88.1591135
20
-33.847943
11
90.8132201
21
-109.8516153
0
LINE
8
0
10
90.1501297
20
-90.8631896
11
109.1885249
21
-90.1983542
0
LINE
8
0
10
108.5236895
20
-71.159959
11
89.4852943
21
-71.8247944
0
LINE
8
0
10
89.4870393
20
-71.8747639
11
108.5254345
21
-71.2099285
0
LINE
8
0
10
107.8605991
20
-52.1715333
11
88.8222039
21
-52.8363687
0
LINE
8
0
10
88.8239489
20
-52.8863382
11
107.8623441
21
-52.2215028
0
LINE
8
0
10
107.1975087
20
-33.1831076
11
88.1591135
21
-33.847943
0
LINE
8
0
10
109.9721194
20
-102.2953525
11
129.0213941
21
-102.461593
0
LINE
8
0
10
129.0213941
20
-102.461593
11
129.6850472
21
-26.4144888
0
LINE
8
0
10
129.1876346
20
-83.4123183
11
110.1383599
21
-83.2460778
0
LINE
8
0
10
109.9721194
20
-102.2953525
11
110.6357725
21
-26.2482483
0
LINE
8
0
10
110.1379236
20
-83.296076
11
129.1871983
21
-83.4623165
0
LINE
8
0
10
129.3534388
20
-64.4130418
11
110.3041641
21
-64.2468013
0
LINE
8
0
10
110.3037278
20
-64.2967995
11
129.3530025
21
-64.46304
0
LINE
8
0
10
129.519243
20
-45.4137653
11
110.4699683
21
-45.2475248
0
LINE
8
0
10
110.469532
20
-45.297523
11
129.5188067
21
-45.4637635
0
LINE
8
0
10
129.6850472
20
-26.4144888
11
110.6357725
21
-26.2482483
0
LINE
8
0
10
129.0150286
20
-97.461347
11
148.0643033
21
-97.6275875
0
LINE
8
0
10
148.0643033
20
-97.6275875
11
148.7279564
21
-21.5804833
0
LINE
8
0
10
148.2305438
20
-78.5783128
11
129.1812691
21
-78.4120723
0
LINE
8
0
10
129.0150286
20
-97.461347
11
129.6786817
21
-21.4142428
0
LINE
8
0
10
129.1808328
20
-78.4620705
11
148.2301075
21
-78.628311
0
LINE
8
0
10
148.396348
20
-59.5790363
11
129.3470733
21
-59.4127958
0
LINE
8
0
10
129.346637
20
-59.462794
11
148.3959117
21
-59.6290345
0
LINE
8
0
10
148.5621522
20
-40.5797598
11
129.5128775
21
-40.4135193
0
LINE
8
0
10
129.5124412
20
-40.4635175
11
148.5617159
21
-40.629758
0
LINE
8
0
10
148.7279564
20
-21.5804833
11
129.6786817
21
-21.4142428
0
LINE
8
0
10
147.961946
20
-103.6269227
11
167.0112207
21
-103.7931632
0
LINE
8
0
10
167.0112207
20
-103.7931632
11
167.6748738
21
-27.746059
0
LINE
8
0
10
167.1774612
20
-84.7438885
11
148.1281865
21
-84.577648
0
LINE
8
0
10
147.961946
20
-103.6269227
11
148.6255991
21
-27.5798185
0
LINE
8
0
10
148.1277502
20
-84.6276462
11
167.1770249
21
-84.7938867
0
LINE
8
0
10
167.3432654
20
-65.744612
11
148.2939907
21
-65.5783715
0
LINE
8
0
10
148.2935544
20
-65.6283697
11
167.3428291
21
-65.7946102
0
LINE
8
0
10
167.5090696
20
-46.7453355
11
148.4597949
21
-46.579095
0
LINE
8
0
10
148.4593586
20
-46.6290932
11
167.5086333
21
-46.7953337
0
LINE
8
0
10
167.6748738
20
-27.746059
11
148.6255991
21
-27.5798185
0
LINE
8
0
10
166.9437694
20
-105.7926507
11
185.9930441
21
-105.9588912
0
LINE
8
0
10
185.9930441
20
-105.9588912
11
186.6566972
21
-29.911787
0
LINE
8
0
10
186.1592846
20
-86.9096165
11
167.1100099
21
-86.743376
0
LINE
8
0
10
166.9437694
20
-105.7926507
11
167.6074225
21
-29.7455465
0
LINE
8
0
10
167.1095736
20
-86.7933742
11
186.1588483
21
-86.9596147
0
LINE
8
0
10
186.3250888
20
-67.91034
11
167.2758141
21
-67.7440995
0
LINE
8
0
10
167.2753778
20
-67.7940977
11
186.3246525
21
-67.9603382
0
LINE
8
0
10
186.490893
20
-48.9110635
11
167.4416183
21
-48.744823
0
LINE
8
0
10
167.441182
20
-48.7948212
11
186.4904567
21
-48.9610617
0
LINE
8
0
10
186.6566972
20
-29.911787
11
167.6074225
21
-29.7455465
0
LINE
8
0
10
147.7699622
20
-125.626085
11
166.8192369
21
-125.7923255
0
LINE
8
0
10
166.8192369
20
-125.7923255
11
166.9854774
21
-106.7430508
0
LINE
8
0
10
166.9854774
20
-106.7430508
11
147.9362027
21
-106.5768103
0
LINE
8
0
10
147.9362027
20
-106.5768103
11
147.7699622
21
-125.626085
0
LINE
8
0
10
168.8214983
20
-126.3325003
11
187.2647108
21
-131.1022394
0
LINE
8
0
10
187.2647108
20
-131.1022394
11
192.0344499
21
-112.6590269
0
LINE
8
0
10
192.0344499
20
-112.6590269
11
173.5912374
21
-107.8892878
0
LINE
8
0
10
173.5912374
20
-107.8892878
11
168.8214983
21
-126.3325003
0
LINE
8
0
10
189.2700075
20
-131.5956836
11
205.8502835
21
-140.9763524
0
LINE
8
0
10
205.8502835
20
-140.9763524
11
215.2309523
21
-124.3960764
0
LINE
8
0
10
215.2309523
20
-124.3960764
11
198.6506763
21
-115.0154076
0
LINE
8
0
10
198.6506763
20
-115.0154076
11
189.2700075
21
-131.5956836
0
LINE
8
0
10
188.5609771
20
-92.4557862
11
207.6102518
21
-92.6220267
0
LINE
8
0
10
207.6102518
20
-92.6220267
11
207.7764923
21
-73.572752
0
LINE
8
0
10
207.7764923
20
-73.572752
11
188.7272176
21
-73.4065115
0
LINE
8
0
10
188.7272176
20
-73.4065115
11
188.5609771
21
-92.4557862
0
LINE
8
0
10
192.4299268
20
-107.4901212
11
211.4792015
21
-107.6563617
0
LINE
8
0
10
211.4792015
20
-107.6563617
11
211.645442
21
-88.607087
0
LINE
8
0
10
211.645442
20
-88.607087
11
192.5961673
21
-88.4408465
0
LINE
8
0
10
192.5961673
20
-88.4408465
11
192.4299268
21
-107.4901212
0
LINE
8
0
10
180.6921797
20
-77.3865451
11
215.7408452
21
-77.6924101
0
LINE
8
0
10
215.7408452
20
-77.6924101
11
215.9070857
21
-58.6431354
0
LINE
8
0
10
180.8584202
20
-58.3372704
11
215.9070857
21
-58.6431354
0
LINE
8
0
10
196.857811
20
-58.4768949
11
196.6915705
21
-77.5261696
0
LINE
8
0
10
199.7414544
20
-77.5527856
11
199.9076949
21
-58.5035109
0
LINE
8
0
10
180.8584202
20
-58.3372704
11
180.6921797
21
-77.3865451
0
LINE
8
0
10
192.9133833
20
-118.1173828
11
209.4936593
21
-127.4980516
0
LINE
8
0
10
209.4936593
20
-127.4980516
11
218.8743281
21
-110.9177756
0
LINE
8
0
10
218.8743281
20
-110.9177756
11
202.2940521
21
-101.5371068
0
LINE
8
0
10
202.2940521
20
-101.5371068
11
192.9133833
21
-118.1173828
0
LINE
8
0
10
178.3440076
20
-114.8252119
11
196.7872201
21
-119.594951
0
LINE
8
0
10
196.7872201
20
-119.594951
11
201.5569592
21
-101.1517385
0
LINE
8
0
10
201.5569592
20
-101.1517385
11
183.1137467
21
-96.3819994
0
LINE
8
0
10
183.1137467
20
-96.3819994
11
178.3440076
21
-114.8252119
0
ENDSEC
0
EOF