0
SECTION
2
HEADER
9
$INSUNITS
70
4
0
ENDSEC
0
SECTION
2
TABLES
0
TABLE
2
LTYPE
0
LTYPE
72
65
70
64
2
CONTINUOUS
3
______
73
0
40
0
0
ENDTAB
0
TABLE
2
LAYER
0
ENDTAB
0
ENDSEC
0
SECTION
2
ENTITIES
0
LINE
8
0
10
91.341404
20
-110.3189129
11
110.3189129
21
-108.658596
0
LINE
8
0
10
103.6907187
20
-32.8979892
11
110.3189129
21
-108.658596
0
LINE
8
0
10
108.658596
20
-89.6810871
11
89.6810871
21
-91.341404
0
LINE
8
0
10
84.7132098
20
-34.5583061
11
91.341404
21
-110.3189129
0
LINE
8
0
10
89.6854449
20
-91.3912136
11
108.6629538
21
-89.7308967
0
LINE
8
0
10
107.0026369
20
-70.7533878
11
88.025128
21
-72.4137047
0
LINE
8
0
10
88.0294858
20
-72.4635143
11
107.0069947
21
-70.8031974
0
LINE
8
0
10
105.3466778
20
-51.8256885
11
86.3691689
21
-53.4860054
0
LINE
8
0
10
86.3735267
20
-53.535815
11
105.3510356
21
-51.8754981
0
LINE
8
0
10
103.6907187
20
-32.8979892
11
84.7132098
21
-34.5583061
0
LINE
8
0
10
110.0584531
20
-96.8882727
11
129.1084531
21
-96.8882727
0
LINE
8
0
10
129.1084531
20
-96.8882727
11
129.1084531
21
-20.8382727
0
LINE
8
0
10
129.1084531
20
-77.8382727
11
110.0584531
21
-77.8382727
0
LINE
8
0
10
110.0584531
20
-96.8882727
11
110.0584531
21
-20.8382727
0
LINE
8
0
10
110.0584531
20
-77.8882727
11
129.1084531
21
-77.8882727
0
LINE
8
0
10
129.1084531
20
-58.8382727
11
110.0584531
21
-58.8382727
0
LINE
8
0
10
110.0584531
20
-58.8882727
11
129.1084531
21
-58.8882727
0
LINE
8
0
10
129.1084531
20
-39.8382727
11
110.0584531
21
-39.8382727
0
LINE
8
0
10
110.0584531
20
-39.8882727
11
129.1084531
21
-39.8882727
0
LINE
8
0
10
129.1084531
20
-20.8382727
11
110.0584531
21
-20.8382727
0
LINE
8
0
10
129.0584531
20
-91.8882727
11
148.1084531
21
-91.8882727
0
LINE
8
0
10
148.1084531
20
-91.8882727
11
148.1084531
21
-15.8382727
0
LINE
8
0
10
148.1084531
20
-72.8382727
11
129.0584531
21
-72.8382727
0
LINE
8
0
10
129.0584531
20
-91.8882727
11
129.0584531
21
-15.8382727
0
LINE
8
0
10
129.0584531
20
-72.8882727
11
148.1084531
21
-72.8882727
0
LINE
8
0
10
148.1084531
20
-53.8382727
11
129.0584531
21
-53.8382727
0
LINE
8
0
10
129.0584531
20
-53.8882727
11
148.1084531
21
-53.8882727
0
LINE
8
0
10
148.1084531
20
-34.8382727
11
129.0584531
21
-34.8382727
0
LINE
8
0
10
129.0584531
20
-34.8882727
11
148.1084531
21
-34.8882727
0
LINE
8
0
10
148.1084531
20
-15.8382727
11
129.0584531
21
-15.8382727
0
LINE
8
0
10
148.0584531
20
-97.8882727
11
167.1084531
21
-97.8882727
0
LINE
8
0
10
167.1084531
20
-97.8882727
11
167.1084531
21
-21.8382727
0
LINE
8
0
10
167.1084531
20
-78.8382727
11
148.0584531
21
-78.8382727
0
LINE
8
0
10
148.0584531
20
-97.8882727
11
148.0584531
21
-21.8382727
0
LINE
8
0
10
148.0584531
20
-78.8882727
11
167.1084531
21
-78.8882727
0
LINE
8
0
10
167.1084531
20
-59.8382727
11
148.0584531
21
-59.8382727
0
LINE
8
0
10
148.0584531
20
-59.8882727
11
167.1084531
21
-59.8882727
0
LINE
8
0
10
167.1084531
20
-40.8382727
11
148.0584531
21
-40.8382727
0
LINE
8
0
10
148.0584531
20
-40.8882727
11
167.1084531
21
-40.8882727
0
LINE
8
0
10
167.1084531
20
-21.8382727
11
148.0584531
21
-21.8382727
0
LINE
8
0
10
167.0584531
20
-99.8882727
11
186.1084531
21
-99.8882727
0
LINE
8
0
10
186.1084531
20
-99.8882727
11
186.1084531
21
-23.8382727
0
LINE
8
0
10
186.1084531
20
-80.8382727
11
167.0584531
21
-80.8382727
0
LINE
8
0
10
167.0584531
20
-99.8882727
11
167.0584531
21
-23.8382727
0
LINE
8
0
10
167.0584531
20
-80.8882727
11
215.6084531
21
-80.8882727
0
LINE
8
0
10
167.0584531
20
-61.8382727
11
215.6084531
21
-61.8382727
0
LINE
8
0
10
167.0584531
20
-61.8882727
11
186.1084531
21
-61.8882727
0
LINE
8
0
10
186.1084531
20
-42.8382727
11
167.0584531
21
-42.8382727
0
LINE
8
0
10
167.0584531
20
-42.8882727
11
186.1084531
21
-42.8882727
0
LINE
8
0
10
186.1084531
20
-23.8382727
11
167.0584531
21
-23.8382727
0
LINE
8
0
10
148.0584531
20
-119.8882727
11
167.1084531
21
-119.8882727
0
LINE
8
0
10
167.1084531
20
-119.8882727
11
167.1084531
21
-100.8382727
0
LINE
8
0
10
167.1084531
20
-100.8382727
11
148.0584531
21
-100.8382727
0
LINE
8
0
10
148.0584531
20
-100.8382727
11
148.0584531
21
-119.8882727
0
LINE
8
0
10
169.1153521
20
-120.4109541
11
187.5994856
21
-125.0195662
0
LINE
8
0
10
187.5994856
20
-125.0195662
11
192.2080977
21
-106.5354327
0
LINE
8
0
10
192.2080977
20
-106.5354327
11
173.7239642
21
-101.9268206
0
LINE
8
0
10
173.7239642
20
-101.9268206
11
169.1153521
21
-120.4109541
0
LINE
8
0
10
189.6090121
20
-125.4954923
11
206.2705175
21
-134.7311155
0
LINE
8
0
10
206.2705175
20
-134.7311155
11
215.5061407
21
-118.0696101
0
LINE
8
0
10
215.5061407
20
-118.0696101
11
198.8446353
21
-108.8339869
0
LINE
8
0
10
198.8446353
20
-108.8339869
11
189.6090121
21
-125.4954923
0
LINE
8
0
10
188.5584531
20
-95.8882727
11
207.6084531
21
-95.8882727
0
LINE
8
0
10
207.6084531
20
-95.8882727
11
207.6084531
21
-76.8382727
0
LINE
8
0
10
188.5584531
20
-76.8382727
11
207.6084531
21
-76.8382727
0
LINE
8
0
10
188.5584531
20
-95.8882727
11
188.5584531
21
-76.8382727
0
LINE
8
0
10
215.6084531
20
-80.8882727
11
215.6084531
21
-61.8382727
0
LINE
8
0
10
196.5584531
20
-61.8382727
11
196.5584531
21
-80.8882727
0
LINE
8
0
10
199.6084531
20
-80.8882727
11
199.6084531
21
-61.8382727
0
LINE
8
0
10
180.5584531
20
-61.8382727
11
180.5584531
21
-80.8882727
0
LINE
8
0
10
193.1346303
20
-111.9859106
11
209.7961357
21
-121.2215338
0
LINE
8
0
10
209.7961357
20
-121.2215338
11
219.0317589
21
-104.5600284
0
LINE
8
0
10
219.0317589
20
-104.5600284
11
202.3702535
21
-95.3244052
0
LINE
8
0
10
202.3702535
20
-95.3244052
11
193.1346303
21
-111.9859106
0
LINE
8
0
10
178.5370801
20
-108.8210054
11
197.0212136
21
-113.4296175
0
LINE
8
0
10
197.0212136
20
-113.4296175
11
201.6298257
21
-94.945484
0
LINE
8
0
10
201.6298257
20
-94.945484
11
183.1456922
21
-90.3368719
0
LINE
8
0
10
183.1456922
20
-90.3368719
11
178.5370801
21
-108.8210054
0
ENDSEC
0
EOF