0
SECTION
2
HEADER
9
$INSUNITS
70
4
0
ENDSEC
0
SECTION
2
TABLES
0
TABLE
2
LTYPE
0
LTYPE
72
65
70
64
2
CONTINUOUS
3
______
73
0
40
0
0
ENDTAB
0
TABLE
2
LAYER
0
ENDTAB
0
ENDSEC
0
SECTION
2
ENTITIES
0
LINE
8
0
10
110.2765595
20
-108.6623014
11
92.3375987
21
-110.2317572
0
LINE
8
0
10
91.2542483
20
-109.3227182
11
83.8003066
21
-24.1237755
0
LINE
8
0
10
84.7099543
20
-23.040372
11
110.0152613
21
-20.8420249
0
LINE
8
0
10
110.1018083
20
-20.8382727
11
123.6912928
21
-20.8382727
0
LINE
8
0
10
124.4019439
20
-20.5418173
11
128.7649623
21
-16.1347281
0
LINE
8
0
10
129.4756134
20
-15.8382727
11
147.6370638
21
-15.8382727
0
LINE
8
0
10
148.4084371
20
-16.2018897
11
152.7584691
21
-21.4746557
0
LINE
8
0
10
153.5298424
20
-21.8382727
11
166.5982912
21
-21.8382727
0
LINE
8
0
10
167.4079016
20
-22.2513051
11
168.2590046
21
-23.4252403
0
LINE
8
0
10
169.068615
20
-23.8382727
11
185.1084531
21
-23.8382727
0
LINE
8
0
10
186.1084531
20
-24.8382727
11
186.1084531
21
-99.5824296
0
LINE
8
0
10
186.2795305
20
-100.1417929
11
190.0748185
21
-105.7660442
0
LINE
8
0
10
190.5951735
20
-106.1578833
11
198.7528182
21
-108.8042017
0
LINE
8
0
10
198.9290602
20
-108.8807844
11
214.631521
21
-117.5848005
0
LINE
8
0
10
215.0213311
20
-118.9442298
11
206.7553271
21
-133.8564958
0
LINE
8
0
10
205.3958978
20
-134.2463059
11
189.7246713
21
-125.5596033
0
LINE
8
0
10
189.480664
20
-125.4636488
11
169.1209779
21
-120.4123499
0
LINE
8
0
10
169.1097454
20
-120.4094939
11
167.232403
21
-119.9205545
0
LINE
8
0
10
166.9803682
20
-119.8882727
11
148.6153097
21
-119.8882727
0
LINE
8
0
10
147.7652049
20
-119.4148863
11
141.352491
21
-109.0629339
0
LINE
8
0
10
140.5000985
20
-108.5895501
11
110.3614275
21
-108.6584987
0
ARC
8
0
10
92.250443
20
-109.2355625
40
1
50
184.9999976
51
274.9999976
0
ARC
8
0
10
84.7965013
20
-24.0366198
40
1
50
94.9649892
51
184.9999976
0
ARC
8
0
10
110.1018083
20
-21.8382727
40
1
50
90
51
94.9649892
0
ARC
8
0
10
123.6912928
20
-19.8382727
40
1
50
270
51
315.2879156
0
ARC
8
0
10
129.4756134
20
-16.8382727
40
1
50
90
51
135.2879156
0
ARC
8
0
10
147.6370638
20
-16.8382727
40
1
50
39.5226325
51
90
0
ARC
8
0
10
153.5298424
20
-20.8382727
40
1
50
219.5226325
51
270
0
ARC
8
0
10
166.5982912
20
-22.8382727
40
1
50
35.9421147
51
90
0
ARC
8
0
10
169.068615
20
-22.8382727
40
1
50
215.9421147
51
270
0
ARC
8
0
10
185.1084531
20
-24.8382727
40
1
50
0
51
90
0
ARC
8
0
10
187.1084531
20
-99.5824296
40
1
50
180
51
214.0117775
0
ARC
8
0
10
190.9037411
20
-105.2066809
40
1
50
214.0117775
51
252.0270711
0
ARC
8
0
10
198.4442506
20
-109.7554041
40
1
50
61.0000008
51
72.0270711
0
ARC
8
0
10
214.1467114
20
-118.4594202
40
1
50
331.0000008
51
61.0000008
0
ARC
8
0
10
205.8807074
20
-133.3716862
40
1
50
241.0000008
51
331.0000008
0
ARC
8
0
10
189.2398617
20
-126.434223
40
1
50
61.0000008
51
76.0661026
0
ARC
8
0
10
169.3617802
20
-119.4417757
40
1
50
255.4020465
51
256.0661026
0
ARC
8
0
10
166.9803682
20
-120.8882727
40
1
50
75.4020465
51
90
0
ARC
8
0
10
148.6153097
20
-118.8882727
40
1
50
211.7769327
51
270
0
ARC
8
0
10
140.5023862
20
-109.5895475
40
1
50
31.7769327
51
90.1310757
0
ARC
8
0
10
110.3637152
20
-109.6584961
40
1
50
90.1310757
51
94.9999976
0
ENDSEC
0
EOF