0
SECTION
2
HEADER
9
$INSUNITS
70
4
0
ENDSEC
0
SECTION
2
TABLES
0
TABLE
2
LTYPE
0
LTYPE
72
65
70
64
2
CONTINUOUS
3
______
73
0
40
0
0
ENDTAB
0
TABLE
2
LAYER
0
ENDTAB
0
ENDSEC
0
SECTION
2
ENTITIES
0
LINE
8
0
10
109.9312829
20
-109.6009415
11
91.4208741
21
-110.4091234
0
LINE
8
0
10
90.3782065
20
-109.4536946
11
87.1045714
21
-34.4751255
0
LINE
8
0
10
88.0600002
20
-33.4324579
11
102.1736408
21
-32.816243
0
LINE
8
0
10
102.848106
20
-32.5131506
11
109.1970955
21
-25.9622872
0
LINE
8
0
10
109.9151801
20
-25.658243
11
123.1246099
21
-25.658243
0
LINE
8
0
10
123.835261
20
-25.3617876
11
128.1982794
21
-20.9546983
0
LINE
8
0
10
128.9089305
20
-20.6582429
11
148.0028556
21
-20.6582429
0
LINE
8
0
10
148.8381044
20
-21.1083708
11
152.195436
21
-26.2081151
0
LINE
8
0
10
153.0306848
20
-26.658243
11
167.0316083
21
-26.658243
0
LINE
8
0
10
167.8412187
20
-27.0712754
11
168.6923217
21
-28.2452106
0
LINE
8
0
10
169.5019321
20
-28.658243
11
185.5417702
21
-28.658243
0
LINE
8
0
10
186.5417702
20
-29.658243
11
186.5417702
21
-57.2690294
0
LINE
8
0
10
186.8346634
20
-57.9761362
11
191.248877
21
-62.3903498
0
LINE
8
0
10
191.9559838
20
-62.683243
11
207.1910249
21
-62.683243
0
LINE
8
0
10
207.911858
20
-62.9901343
11
209.8352559
21
-64.9904681
0
LINE
8
0
10
210.1144059
20
-65.6893979
11
209.8034969
21
-119.0989638
0
LINE
8
0
10
210.3186704
20
-119.9794046
11
215.2445528
21
-122.7098658
0
LINE
8
0
10
215.6343629
20
-124.0692951
11
206.8832849
21
-139.8566577
0
LINE
8
0
10
205.5243327
20
-140.2467321
11
189.0079422
21
-131.1033205
0
LINE
8
0
10
188.7653395
20
-131.0078609
11
167.6304814
21
-125.7427918
0
LINE
8
0
10
167.3889975
20
-125.7131354
11
148.147241
21
-125.7084042
0
LINE
8
0
10
147.2304168
20
-125.1071303
11
140.7531166
21
-110.2093396
0
LINE
8
0
10
139.836317
20
-109.6080657
11
109.9751728
21
-109.5999897
0
ARC
8
0
10
91.3772547
20
-109.4100752
40
1
50
182.5000008
51
272.5000008
0
ARC
8
0
10
88.1036196
20
-34.4315061
40
1
50
92.5000008
51
182.5000008
0
ARC
8
0
10
102.1300214
20
-31.8171948
40
1
50
272.5000008
51
315.896568
0
ARC
8
0
10
109.9151801
20
-26.658243
40
1
50
90
51
135.896568
0
ARC
8
0
10
123.1246099
20
-24.658243
40
1
50
270
51
315.2879156
0
ARC
8
0
10
128.9089305
20
-21.6582429
40
1
50
90
51
135.2879156
0
ARC
8
0
10
148.0028556
20
-21.6582429
40
1
50
33.3582411
51
90
0
ARC
8
0
10
153.0306848
20
-25.658243
40
1
50
213.3582411
51
270
0
ARC
8
0
10
167.0316083
20
-27.658243
40
1
50
35.9421147
51
90
0
ARC
8
0
10
169.5019321
20
-27.658243
40
1
50
215.9421147
51
270
0
ARC
8
0
10
185.5417702
20
-29.658243
40
1
50
0
51
90
0
ARC
8
0
10
187.5417702
20
-57.2690294
40
1
50
180
51
225
0
ARC
8
0
10
191.9559838
20
-61.683243
40
1
50
225
51
270
0
ARC
8
0
10
207.1910249
20
-63.683243
40
1
50
43.8766952
51
90
0
ARC
8
0
10
209.1144228
20
-65.6835768
40
1
50
359.6664737
51
43.8766952
0
ARC
8
0
10
210.80348
20
-119.1047849
40
1
50
179.6664737
51
241.0000008
0
ARC
8
0
10
214.7597432
20
-123.5844855
40
1
50
331.0000008
51
61.0000008
0
ARC
8
0
10
206.0086652
20
-139.3718481
40
1
50
241.0312509
51
331.0000008
0
ARC
8
0
10
188.5236097
20
-131.9782045
40
1
50
61.0312509
51
76.0113429
0
ARC
8
0
10
167.3887516
20
-126.7131354
40
1
50
76.0113429
51
89.985911
0
ARC
8
0
10
148.1474869
20
-124.7084042
40
1
50
203.4985641
51
269.985911
0
ARC
8
0
10
139.8360465
20
-110.6080657
40
1
50
23.4985641
51
89.9845015
0
ARC
8
0
10
109.9749023
20
-110.5999897
40
1
50
89.9845015
51
92.5000008
0
ENDSEC
0
EOF