0
SECTION
2
HEADER
9
$INSUNITS
70
4
0
ENDSEC
0
SECTION
2
TABLES
0
TABLE
2
LTYPE
0
LTYPE
72
65
70
64
2
CONTINUOUS
3
______
73
0
40
0
0
ENDTAB
0
TABLE
2
LAYER
0
ENDTAB
0
ENDSEC
0
SECTION
2
ENTITIES
0
LINE
8
0
10
109.8329008
20
-109.1874334
11
91.8126109
21
-109.8167158
0
LINE
8
0
10
90.7783206
20
-108.8522245
11
88.194013
21
-34.8473338
0
LINE
8
0
10
89.1585043
20
-33.8130435
11
103.2769959
21
-33.3200149
0
LINE
8
0
10
103.9540669
20
-33.0228335
11
110.338458
21
-26.5496956
0
LINE
8
0
10
111.059155
20
-26.2519431
11
124.2680932
21
-26.3672158
0
LINE
8
0
10
124.9813043
20
-26.0769732
11
129.382615
21
-21.7081258
0
LINE
8
0
10
130.0958261
20
-21.4178832
11
148.2565851
21
-21.5763697
0
LINE
8
0
10
149.0247559
20
-21.9467043
11
153.3286092
21
-27.2572302
0
LINE
8
0
10
154.09678
20
-27.6275648
11
167.1647312
21
-27.7416071
0
LINE
8
0
10
167.9707065
20
-28.1616889
11
168.8115327
21
-29.3430064
0
LINE
8
0
10
169.617508
20
-29.7630882
11
185.6567353
21
-29.9030605
0
LINE
8
0
10
186.6479707
20
-30.9117489
11
186.4113874
21
-58.0215031
0
LINE
8
0
10
186.6980989
20
-58.7311389
11
191.0736236
21
-63.1837052
0
LINE
8
0
10
191.7781475
20
-63.4827578
11
207.5125893
21
-63.6200702
0
LINE
8
0
10
208.2307169
20
-63.9332401
11
210.1380287
21
-65.9518097
0
LINE
8
0
10
210.4111148
20
-66.6495395
11
209.8194472
21
-120.7402397
0
LINE
8
0
10
210.3269638
20
-121.6215332
11
214.3605966
21
-123.9036528
0
LINE
8
0
10
214.7385287
20
-125.2664321
11
206.3427071
21
-140.1059967
0
LINE
8
0
10
204.9799278
20
-140.4839288
11
189.3851026
21
-131.6608013
0
LINE
8
0
10
189.1419419
20
-131.5627212
11
168.8271116
21
-126.3339451
0
LINE
8
0
10
168.8159045
20
-126.3309912
11
166.9429005
21
-125.8256878
0
LINE
8
0
10
166.691157
20
-125.7912078
11
148.4288024
21
-125.6318346
0
LINE
8
0
10
147.5152672
20
-125.0184388
11
141.1688852
21
-109.877367
0
LINE
8
0
10
140.2491617
20
-109.2639363
11
109.8703385
21
-109.1868274
0
ARC
8
0
10
91.7777114
20
-108.817325
40
1
50
182.0000002
51
272.0000002
0
ARC
8
0
10
89.1934038
20
-34.8124343
40
1
50
92.0000002
51
182.0000002
0
ARC
8
0
10
103.2420964
20
-32.3206241
40
1
50
272.0000002
51
315.3954666
0
ARC
8
0
10
111.0504285
20
-27.251905
40
1
50
89.500002
51
135.3954666
0
ARC
8
0
10
124.2768197
20
-25.3672539
40
1
50
269.500002
51
314.7879197
0
ARC
8
0
10
130.0870996
20
-22.4178451
40
1
50
89.500002
51
134.7879197
0
ARC
8
0
10
148.2478586
20
-22.5763316
40
1
50
39.0226319
51
89.500002
0
ARC
8
0
10
154.1055065
20
-26.6276029
40
1
50
219.0226319
51
269.500002
0
ARC
8
0
10
167.1560047
20
-28.741569
40
1
50
35.4421109
51
89.500002
0
ARC
8
0
10
169.6262345
20
-28.7631263
40
1
50
215.4421109
51
269.500002
0
ARC
8
0
10
185.6480088
20
-30.9030224
40
1
50
359.500002
51
89.500002
0
ARC
8
0
10
187.4113493
20
-58.0302296
40
1
50
179.500002
51
224.5000034
0
ARC
8
0
10
191.786874
20
-62.4827959
40
1
50
224.5000034
51
269.500002
0
ARC
8
0
10
207.5038628
20
-64.6200321
40
1
50
43.3766976
51
89.500002
0
ARC
8
0
10
209.4111746
20
-66.6386017
40
1
50
359.3732977
51
43.3766976
0
ARC
8
0
10
210.8193874
20
-120.7511775
40
1
50
179.3732977
51
240.4999981
0
ARC
8
0
10
213.868173
20
-124.7740085
40
1
50
330.4999981
51
60.4999981
0
ARC
8
0
10
205.4723514
20
-139.6135731
40
1
50
240.4999981
51
330.4999981
0
ARC
8
0
10
188.892679
20
-132.531157
40
1
50
60.4999981
51
75.5661005
0
ARC
8
0
10
169.0763745
20
-125.3655093
40
1
50
254.9020473
51
255.5661005
0
ARC
8
0
10
166.6824305
20
-126.7911697
40
1
50
74.9020473
51
89.500002
0
ARC
8
0
10
148.4375289
20
-124.6318727
40
1
50
202.7410002
51
269.500002
0
ARC
8
0
10
140.2466235
20
-110.2639331
40
1
50
22.7410002
51
89.8545717
0
ARC
8
0
10
109.8678003
20
-110.1868242
40
1
50
89.8545717
51
92.0000002
0
ENDSEC
0
EOF