0
SECTION
2
HEADER
9
$INSUNITS
70
4
0
ENDSEC
0
SECTION
2
TABLES
0
TABLE
2
LTYPE
0
LTYPE
72
65
70
64
2
CONTINUOUS
3
______
73
0
40
0
0
ENDTAB
0
TABLE
2
LAYER
0
ENDTAB
0
ENDSEC
0
SECTION
2
ENTITIES
0
LINE
8
0
10
109.9312829
20
-109.6009415
11
91.4208741
21
-110.4091234
0
LINE
8
0
10
90.3782065
20
-109.4536946
11
87.1045714
21
-34.4751255
0
LINE
8
0
10
88.0600002
20
-33.4324579
11
102.1736408
21
-32.816243
0
LINE
8
0
10
102.848106
20
-32.5131506
11
109.1970955
21
-25.9622872
0
LINE
8
0
10
109.9151801
20
-25.658243
11
123.1246099
21
-25.658243
0
LINE
8
0
10
123.835261
20
-25.3617876
11
128.1982794
21
-20.9546983
0
LINE
8
0
10
128.9089305
20
-20.6582429
11
148.0028556
21
-20.6582429
0
LINE
8
0
10
148.8381044
20
-21.1083708
11
152.195436
21
-26.2081151
0
LINE
8
0
10
153.0306848
20
-26.658243
11
167.0316083
21
-26.658243
0
LINE
8
0
10
167.8412187
20
-27.0712754
11
168.6923217
21
-28.2452106
0
LINE
8
0
10
169.5019321
20
-28.658243
11
185.5417702
21
-28.658243
0
LINE
8
0
10
186.5417702
20
-29.658243
11
186.5417702
21
-57.2690294
0
LINE
8
0
10
186.8346634
20
-57.9761362
11
191.248877
21
-62.3903498
0
LINE
8
0
10
191.9559838
20
-62.683243
11
207.1910249
21
-62.683243
0
LINE
8
0
10
207.911858
20
-62.9901343
11
209.8352559
21
-64.9904681
0
LINE
8
0
10
210.1144059
20
-65.6893979
11
209.8034969
21
-119.0989638
0
LINE
8
0
10
210.3186704
20
-119.9794046
11
215.2445528
21
-122.7098658
0
LINE
8
0
10
215.6343629
20
-124.0692951
11
206.8832849
21
-139.8566577
0
LINE
8
0
10
205.5243327
20
-140.2467321
11
189.0079422
21
-131.1033205
0
LINE
8
0
10
188.7653395
20
-131.0078609
11
167.6304814
21
-125.7427918
0
LINE
8
0
10
167.3889975
20
-125.7131354
11
148.147241
21
-125.7084042
0
LINE
8
0
10
147.2304168
20
-125.1071303
11
140.7531166
21
-110.2093396
0
LINE
8
0
10
139.836317
20
-109.6080657
11
109.9751728
21
-109.5999897
0
ARC
8
0
10
91.3772547
20
-109.4100752
40
1
50
182.5000008
51
272.5000008
0
ARC
8
0
10
88.1036196
20
-34.4315061
40
1
50
92.5000008
51
182.5000008
0
ARC
8
0
10
102.1300214
20
-31.8171948
40
1
50
272.5000008
51
315.896568
0
ARC
8
0
10
109.9151801
20
-26.658243
40
1
50
90
51
135.896568
0
ARC
8
0
10
123.1246099
20
-24.658243
40
1
50
270
51
315.2879156
0
ARC
8
0
10
128.9089305
20
-21.6582429
40
1
50
90
51
135.2879156
0
ARC
8
0
10
148.0028556
20
-21.6582429
40
1
50
33.3582411
51
90
0
ARC
8
0
10
153.0306848
20
-25.658243
40
1
50
213.3582411
51
270
0
ARC
8
0
10
167.0316083
20
-27.658243
40
1
50
35.9421147
51
90
0
ARC
8
0
10
169.5019321
20
-27.658243
40
1
50
215.9421147
51
270
0
ARC
8
0
10
185.5417702
20
-29.658243
40
1
50
0
51
90
0
ARC
8
0
10
187.5417702
20
-57.2690294
40
1
50
180
51
225
0
ARC
8
0
10
191.9559838
20
-61.683243
40
1
50
225
51
270
0
ARC
8
0
10
207.1910249
20
-63.683243
40
1
50
43.8766952
51
90
0
ARC
8
0
10
209.1144228
20
-65.6835768
40
1
50
359.6664737
51
43.8766952
0
ARC
8
0
10
210.80348
20
-119.1047849
40
1
50
179.6664737
51
241.0000008
0
ARC
8
0
10
214.7597432
20
-123.5844855
40
1
50
331.0000008
51
61.0000008
0
ARC
8
0
10
206.0086652
20
-139.3718481
40
1
50
241.0312509
51
331.0000008
0
ARC
8
0
10
188.5236097
20
-131.9782045
40
1
50
61.0312509
51
76.0113429
0
ARC
8
0
10
167.3887516
20
-126.7131354
40
1
50
76.0113429
51
89.985911
0
ARC
8
0
10
148.1474869
20
-124.7084042
40
1
50
203.4985641
51
269.985911
0
ARC
8
0
10
139.8360465
20
-110.6080657
40
1
50
23.4985641
51
89.9845015
0
ARC
8
0
10
109.9749023
20
-110.5999897
40
1
50
89.9845015
51
92.5000008
0
LINE
8
0
10
90.8995404
20
-109.931409
11
109.931409
21
-109.1004596
0
LINE
8
0
10
106.6141544
20
-33.1228424
11
109.931409
21
-109.1004596
0
LINE
8
0
10
109.1004596
20
-90.068591
11
90.068591
21
-90.8995404
0
LINE
8
0
10
87.5822858
20
-33.9537918
11
90.8995404
21
-109.931409
0
LINE
8
0
10
90.070772
20
-90.9494928
11
109.1026406
21
-90.1185434
0
LINE
8
0
10
108.2716912
20
-71.0866748
11
89.2398226
21
-71.9176242
0
LINE
8
0
10
89.2420036
20
-71.9675766
11
108.2738722
21
-71.1366272
0
LINE
8
0
10
107.4429228
20
-52.1047586
11
88.4110542
21
-52.935708
0
LINE
8
0
10
88.4132352
20
-52.9856604
11
107.4451038
21
-52.154711
0
LINE
8
0
10
106.6141544
20
-33.1228424
11
87.5822858
21
-33.9537918
0
LINE
8
0
10
109.9917702
20
-102.208243
11
129.0417702
21
-102.208243
0
LINE
8
0
10
129.0417702
20
-102.208243
11
129.0417702
21
-26.158243
0
LINE
8
0
10
129.0417702
20
-83.158243
11
109.9917702
21
-83.158243
0
LINE
8
0
10
109.9917702
20
-102.208243
11
109.9917702
21
-26.158243
0
LINE
8
0
10
109.9917702
20
-83.208243
11
129.0417702
21
-83.208243
0
LINE
8
0
10
129.0417702
20
-64.158243
11
109.9917702
21
-64.158243
0
LINE
8
0
10
109.9917702
20
-64.208243
11
129.0417702
21
-64.208243
0
LINE
8
0
10
129.0417702
20
-45.158243
11
109.9917702
21
-45.158243
0
LINE
8
0
10
109.9917702
20
-45.208243
11
129.0417702
21
-45.208243
0
LINE
8
0
10
129.0417702
20
-26.158243
11
109.9917702
21
-26.158243
0
LINE
8
0
10
128.9917702
20
-97.2082429
11
157.5667702
21
-97.2082429
0
LINE
8
0
10
148.0417702
20
-97.2082429
11
148.0417702
21
-21.1582429
0
LINE
8
0
10
128.9917702
20
-78.1582429
11
157.5667702
21
-78.1582429
0
LINE
8
0
10
128.9917702
20
-97.2082429
11
128.9917702
21
-21.1582429
0
LINE
8
0
10
128.9917702
20
-78.2082429
11
148.0417702
21
-78.2082429
0
LINE
8
0
10
148.0417702
20
-59.1582429
11
128.9917702
21
-59.1582429
0
LINE
8
0
10
128.9917702
20
-59.2082429
11
148.0417702
21
-59.2082429
0
LINE
8
0
10
148.0417702
20
-40.1582429
11
128.9917702
21
-40.1582429
0
LINE
8
0
10
128.9917702
20
-40.2082429
11
148.0417702
21
-40.2082429
0
LINE
8
0
10
148.0417702
20
-21.1582429
11
128.9917702
21
-21.1582429
0
LINE
8
0
10
147.9917702
20
-103.208243
11
167.0417702
21
-103.208243
0
LINE
8
0
10
167.0417702
20
-103.208243
11
167.0417702
21
-27.158243
0
LINE
8
0
10
167.0417702
20
-84.158243
11
147.9917702
21
-84.158243
0
LINE
8
0
10
147.9917702
20
-103.208243
11
147.9917702
21
-27.158243
0
LINE
8
0
10
147.9917702
20
-84.208243
11
167.0417702
21
-84.208243
0
LINE
8
0
10
167.0417702
20
-65.158243
11
147.9917702
21
-65.158243
0
LINE
8
0
10
147.9917702
20
-65.208243
11
176.5667702
21
-65.208243
0
LINE
8
0
10
147.9917702
20
-46.158243
11
176.5667702
21
-46.158243
0
LINE
8
0
10
147.9917702
20
-46.208243
11
167.0417702
21
-46.208243
0
LINE
8
0
10
167.0417702
20
-27.158243
11
147.9917702
21
-27.158243
0
LINE
8
0
10
166.9917702
20
-105.208243
11
186.0417702
21
-105.208243
0
LINE
8
0
10
186.0417702
20
-105.208243
11
186.0417702
21
-29.158243
0
LINE
8
0
10
186.0417702
20
-86.158243
11
166.9917702
21
-86.158243
0
LINE
8
0
10
166.9917702
20
-105.208243
11
166.9917702
21
-29.158243
0
LINE
8
0
10
166.9917702
20
-86.208243
11
186.0417702
21
-86.208243
0
LINE
8
0
10
186.0417702
20
-67.158243
11
166.9917702
21
-67.158243
0
LINE
8
0
10
166.9917702
20
-67.208243
11
186.0417702
21
-67.208243
0
LINE
8
0
10
186.0417702
20
-48.158243
11
166.9917702
21
-48.158243
0
LINE
8
0
10
166.9917702
20
-48.208243
11
186.0417702
21
-48.208243
0
LINE
8
0
10
186.0417702
20
-29.158243
11
166.9917702
21
-29.158243
0
LINE
8
0
10
147.9917702
20
-125.208243
11
167.0417702
21
-125.208243
0
LINE
8
0
10
167.0417702
20
-125.208243
11
167.0417702
21
-106.158243
0
LINE
8
0
10
167.0417702
20
-106.158243
11
147.9917702
21
-106.158243
0
LINE
8
0
10
147.9917702
20
-106.158243
11
147.9917702
21
-125.208243
0
LINE
8
0
10
169.0486692
20
-125.7309244
11
187.5328027
21
-130.3395365
0
LINE
8
0
10
187.5328027
20
-130.3395365
11
192.1414148
21
-111.855403
0
LINE
8
0
10
192.1414148
20
-111.855403
11
173.6572813
21
-107.2467909
0
LINE
8
0
10
173.6572813
20
-107.2467909
11
169.0486692
21
-125.7309244
0
LINE
8
0
10
189.5423292
20
-130.8154626
11
206.2038346
21
-140.0510858
0
LINE
8
0
10
206.2038346
20
-140.0510858
11
215.4394578
21
-123.3895804
0
LINE
8
0
10
215.4394578
20
-123.3895804
11
198.7779524
21
-114.1539572
0
LINE
8
0
10
198.7779524
20
-114.1539572
11
189.5423292
21
-130.8154626
0
LINE
8
0
10
188.4917702
20
-91.683243
11
207.5417702
21
-91.683243
0
LINE
8
0
10
207.5417702
20
-91.683243
11
207.5417702
21
-72.633243
0
LINE
8
0
10
207.5417702
20
-72.633243
11
188.4917702
21
-72.633243
0
LINE
8
0
10
188.4917702
20
-72.633243
11
188.4917702
21
-91.683243
0
LINE
8
0
10
192.4917702
20
-106.683243
11
211.5417702
21
-106.683243
0
LINE
8
0
10
211.5417702
20
-106.683243
11
211.5417702
21
-87.633243
0
LINE
8
0
10
211.5417702
20
-87.633243
11
192.4917702
21
-87.633243
0
LINE
8
0
10
192.4917702
20
-87.633243
11
192.4917702
21
-106.683243
0
LINE
8
0
10
180.4917702
20
-76.683243
11
215.5417702
21
-76.683243
0
LINE
8
0
10
215.5417702
20
-76.683243
11
215.5417702
21
-57.633243
0
LINE
8
0
10
180.4917702
20
-57.633243
11
215.5417702
21
-57.633243
0
LINE
8
0
10
196.4917702
20
-57.633243
11
196.4917702
21
-76.683243
0
LINE
8
0
10
199.5417702
20
-76.683243
11
199.5417702
21
-57.633243
0
LINE
8
0
10
180.4917702
20
-57.633243
11
180.4917702
21
-76.683243
0
LINE
8
0
10
193.0679474
20
-117.3058809
11
209.7294528
21
-126.5415041
0
LINE
8
0
10
209.7294528
20
-126.5415041
11
218.965076
21
-109.8799987
0
LINE
8
0
10
218.965076
20
-109.8799987
11
202.3035706
21
-100.6443755
0
LINE
8
0
10
202.3035706
20
-100.6443755
11
193.0679474
21
-117.3058809
0
LINE
8
0
10
178.4703972
20
-114.1409757
11
196.9545307
21
-118.7495878
0
LINE
8
0
10
196.9545307
20
-118.7495878
11
201.5631428
21
-100.2654543
0
LINE
8
0
10
201.5631428
20
-100.2654543
11
183.0790093
21
-95.6568422
0
LINE
8
0
10
183.0790093
20
-95.6568422
11
178.4703972
21
-114.1409757
0
LINE
8
0
10
98.4307925
20
-64.0592403
11
117.4626611
21
-63.2282909
0
LINE
8
0
10
117.4626611
20
-63.2282909
11
116.6317117
21
-44.1964223
0
LINE
8
0
10
116.6317117
20
-44.1964223
11
97.5998431
21
-45.0273717
0
LINE
8
0
10
97.5998431
20
-45.0273717
11
98.4307925
21
-64.0592403
0
LINE
8
0
10
100.4667702
20
-100.208243
11
119.5167702
21
-100.208243
0
LINE
8
0
10
119.5167702
20
-100.208243
11
119.5167702
21
-81.158243
0
LINE
8
0
10
119.5167702
20
-81.158243
11
100.4667702
21
-81.158243
0
LINE
8
0
10
100.4667702
20
-81.158243
11
100.4667702
21
-100.208243
0
LINE
8
0
10
157.5667702
20
-97.2082429
11
157.5667702
21
-78.1582429
0
LINE
8
0
10
138.5167702
20
-78.1582429
11
138.5167702
21
-97.2082429
0
LINE
8
0
10
157.5167702
20
-115.683243
11
176.5667702
21
-115.683243
0
LINE
8
0
10
176.5667702
20
-115.683243
11
176.5667702
21
-96.633243
0
LINE
8
0
10
176.5667702
20
-96.633243
11
157.5167702
21
-96.633243
0
LINE
8
0
10
157.5167702
20
-96.633243
11
157.5167702
21
-115.683243
0
LINE
8
0
10
179.5003455
20
-123.1837518
11
197.984479
21
-127.7923639
0
LINE
8
0
10
197.984479
20
-127.7923639
11
202.5930911
21
-109.3082304
0
LINE
8
0
10
202.5930911
20
-109.3082304
11
184.1089576
21
-104.6996183
0
LINE
8
0
10
184.1089576
20
-104.6996183
11
179.5003455
21
-123.1837518
0
LINE
8
0
10
174.9917702
20
-98.208243
11
194.0417702
21
-98.208243
0
LINE
8
0
10
194.0417702
20
-98.208243
11
194.0417702
21
-79.158243
0
LINE
8
0
10
194.0417702
20
-79.158243
11
174.9917702
21
-79.158243
0
LINE
8
0
10
174.9917702
20
-79.158243
11
174.9917702
21
-98.208243
0
LINE
8
0
10
176.5667702
20
-65.208243
11
176.5667702
21
-46.158243
0
LINE
8
0
10
157.5167702
20
-46.158243
11
157.5167702
21
-65.208243
0
LINE
8
0
10
138.5167702
20
-57.2082429
11
157.5667702
21
-57.2082429
0
LINE
8
0
10
157.5667702
20
-57.2082429
11
157.5667702
21
-38.1582429
0
LINE
8
0
10
157.5667702
20
-38.1582429
11
138.5167702
21
-38.1582429
0
LINE
8
0
10
138.5167702
20
-38.1582429
11
138.5167702
21
-57.2082429
0
ENDSEC
0
EOF