0
SECTION
2
HEADER
9
$INSUNITS
70
4
0
ENDSEC
0
SECTION
2
TABLES
0
TABLE
2
LTYPE
0
LTYPE
72
65
70
64
2
CONTINUOUS
3
______
73
0
40
0
0
ENDTAB
0
TABLE
2
LAYER
0
ENDTAB
0
ENDSEC
0
SECTION
2
ENTITIES
0
LINE
8
0
10
91.341404
20
-110.3189129
11
110.3189129
21
-108.658596
0
LINE
8
0
10
84.7132098
20
-34.5583061
11
91.341404
21
-110.3189129
0
LINE
8
0
10
84.7132098
20
-34.5583061
11
103.6907187
21
-32.8979892
0
LINE
8
0
10
97.4465306
20
-33.2154624
11
109.7667412
21
-21.1245553
0
LINE
8
0
10
110.0584531
20
-20.8382727
11
129.1084531
21
-20.8382727
0
LINE
8
0
10
124.4019439
20
-20.5418173
11
128.7649623
21
-16.1347281
0
LINE
8
0
10
129.0584531
20
-15.8382727
11
148.1084531
21
-15.8382727
0
LINE
8
0
10
148.4084371
20
-16.2018897
11
152.7584691
21
-21.4746557
0
LINE
8
0
10
148.0584531
20
-21.8382727
11
167.1084531
21
-21.8382727
0
LINE
8
0
10
167.4079016
20
-22.2513051
11
168.2590046
21
-23.4252403
0
LINE
8
0
10
167.0584531
20
-23.8382727
11
186.1084531
21
-23.8382727
0
LINE
8
0
10
186.1084531
20
-99.8882727
11
186.1084531
21
-23.8382727
0
LINE
8
0
10
186.4013463
20
-61.6561659
11
190.8155599
21
-66.0703795
0
LINE
8
0
10
191.5226667
20
-66.3632727
11
201.7692395
21
-66.3632727
0
LINE
8
0
10
202.4763463
20
-66.6561659
11
206.8904805
21
-71.0703001
0
LINE
8
0
10
207.1833737
20
-71.7775985
11
207.1755009
21
-112.8626245
0
LINE
8
0
10
198.8446353
20
-108.8339869
11
215.5061407
21
-118.0696101
0
LINE
8
0
10
206.2705175
20
-134.7311155
11
215.5061407
21
-118.0696101
0
LINE
8
0
10
189.6090121
20
-125.4954923
11
206.2705175
21
-134.7311155
0
LINE
8
0
10
189.480664
20
-125.4636488
11
169.1209779
21
-120.4123499
0
LINE
8
0
10
169.1097454
20
-120.4094939
11
167.232403
21
-119.9205545
0
LINE
8
0
10
148.0584531
20
-119.8882727
11
167.1084531
21
-119.8882727
0
LINE
8
0
10
147.7652049
20
-119.4148863
11
141.352491
21
-109.0629339
0
LINE
8
0
10
140.5000985
20
-108.5895501
11
110.3614275
21
-108.6584987
0
ARC
8
0
10
92.250443
20
-109.2355625
40
1
50
184.9999976
51
274.9999976
0
ARC
8
0
10
85.7965602
20
-35.4673451
40
1
50
94.9999976
51
184.9999976
0
ARC
8
0
10
96.7460969
20
-32.501745
40
1
50
274.9999976
51
314.4618131
0
ARC
8
0
10
110.4671749
20
-21.8382727
40
1
50
90
51
134.4618131
0
ARC
8
0
10
123.6912928
20
-19.8382727
40
1
50
270
51
315.2879156
0
ARC
8
0
10
129.4756134
20
-16.8382727
40
1
50
90
51
135.2879156
0
ARC
8
0
10
147.6370638
20
-16.8382727
40
1
50
39.5226325
51
90
0
ARC
8
0
10
153.5298424
20
-20.8382727
40
1
50
219.5226325
51
270
0
ARC
8
0
10
166.5982912
20
-22.8382727
40
1
50
35.9421147
51
90
0
ARC
8
0
10
169.068615
20
-22.8382727
40
1
50
215.9421147
51
270
0
ARC
8
0
10
185.1084531
20
-24.8382727
40
1
50
0
51
90
0
ARC
8
0
10
187.1084531
20
-60.9490591
40
1
50
180
51
225
0
ARC
8
0
10
191.5226667
20
-65.3632727
40
1
50
225
51
270
0
ARC
8
0
10
201.7692395
20
-67.3632727
40
1
50
45
51
90
0
ARC
8
0
10
206.1833737
20
-71.7774069
40
1
50
359.9890221
51
45
0
ARC
8
0
10
208.1755009
20
-112.8628161
40
1
50
179.9890221
51
241.0000008
0
ARC
8
0
10
214.1467114
20
-118.4594202
40
1
50
331.0000008
51
61.0000008
0
ARC
8
0
10
205.8807074
20
-133.3716862
40
1
50
241.0000008
51
331.0000008
0
ARC
8
0
10
189.2398617
20
-126.434223
40
1
50
61.0000008
51
76.0661026
0
ARC
8
0
10
169.3617802
20
-119.4417757
40
1
50
255.4020465
51
256.0661026
0
ARC
8
0
10
166.9803682
20
-120.8882727
40
1
50
75.4020465
51
90
0
ARC
8
0
10
148.6153097
20
-118.8882727
40
1
50
211.7769327
51
270
0
ARC
8
0
10
140.5023862
20
-109.5895475
40
1
50
31.7769327
51
90.1310757
0
ARC
8
0
10
110.3637152
20
-109.6584961
40
1
50
90.1310757
51
94.9999976
0
LINE
8
0
10
103.6907187
20
-32.8979892
11
110.3189129
21
-108.658596
0
LINE
8
0
10
108.658596
20
-89.6810871
11
89.6810871
21
-91.341404
0
LINE
8
0
10
89.6854449
20
-91.3912136
11
108.6629538
21
-89.7308967
0
LINE
8
0
10
107.0026369
20
-70.7533878
11
88.025128
21
-72.4137047
0
LINE
8
0
10
88.0294858
20
-72.4635143
11
107.0069947
21
-70.8031974
0
LINE
8
0
10
105.3466778
20
-51.8256885
11
86.3691689
21
-53.4860054
0
LINE
8
0
10
86.3735267
20
-53.535815
11
105.3510356
21
-51.8754981
0
LINE
8
0
10
110.0584531
20
-96.8882727
11
129.1084531
21
-96.8882727
0
LINE
8
0
10
129.1084531
20
-96.8882727
11
129.1084531
21
-20.8382727
0
LINE
8
0
10
129.1084531
20
-77.8382727
11
110.0584531
21
-77.8382727
0
LINE
8
0
10
110.0584531
20
-96.8882727
11
110.0584531
21
-20.8382727
0
LINE
8
0
10
110.0584531
20
-77.8882727
11
129.1084531
21
-77.8882727
0
LINE
8
0
10
129.1084531
20
-58.8382727
11
110.0584531
21
-58.8382727
0
LINE
8
0
10
110.0584531
20
-58.8882727
11
129.1084531
21
-58.8882727
0
LINE
8
0
10
129.1084531
20
-39.8382727
11
110.0584531
21
-39.8382727
0
LINE
8
0
10
110.0584531
20
-39.8882727
11
129.1084531
21
-39.8882727
0
LINE
8
0
10
129.0584531
20
-91.8882727
11
148.1084531
21
-91.8882727
0
LINE
8
0
10
148.1084531
20
-91.8882727
11
148.1084531
21
-15.8382727
0
LINE
8
0
10
148.1084531
20
-72.8382727
11
129.0584531
21
-72.8382727
0
LINE
8
0
10
129.0584531
20
-91.8882727
11
129.0584531
21
-15.8382727
0
LINE
8
0
10
129.0584531
20
-72.8882727
11
148.1084531
21
-72.8882727
0
LINE
8
0
10
148.1084531
20
-53.8382727
11
129.0584531
21
-53.8382727
0
LINE
8
0
10
129.0584531
20
-53.8882727
11
148.1084531
21
-53.8882727
0
LINE
8
0
10
148.1084531
20
-34.8382727
11
129.0584531
21
-34.8382727
0
LINE
8
0
10
129.0584531
20
-34.8882727
11
148.1084531
21
-34.8882727
0
LINE
8
0
10
148.0584531
20
-97.8882727
11
167.1084531
21
-97.8882727
0
LINE
8
0
10
167.1084531
20
-97.8882727
11
167.1084531
21
-21.8382727
0
LINE
8
0
10
167.1084531
20
-78.8382727
11
148.0584531
21
-78.8382727
0
LINE
8
0
10
148.0584531
20
-97.8882727
11
148.0584531
21
-21.8382727
0
LINE
8
0
10
148.0584531
20
-78.8882727
11
167.1084531
21
-78.8882727
0
LINE
8
0
10
167.1084531
20
-59.8382727
11
148.0584531
21
-59.8382727
0
LINE
8
0
10
148.0584531
20
-59.8882727
11
167.1084531
21
-59.8882727
0
LINE
8
0
10
167.1084531
20
-40.8382727
11
148.0584531
21
-40.8382727
0
LINE
8
0
10
148.0584531
20
-40.8882727
11
167.1084531
21
-40.8882727
0
LINE
8
0
10
167.0584531
20
-99.8882727
11
186.1084531
21
-99.8882727
0
LINE
8
0
10
186.1084531
20
-80.8382727
11
167.0584531
21
-80.8382727
0
LINE
8
0
10
167.0584531
20
-99.8882727
11
167.0584531
21
-23.8382727
0
LINE
8
0
10
167.0584531
20
-80.8882727
11
186.1084531
21
-80.8882727
0
LINE
8
0
10
186.1084531
20
-61.8382727
11
167.0584531
21
-61.8382727
0
LINE
8
0
10
167.0584531
20
-61.8882727
11
186.1084531
21
-61.8882727
0
LINE
8
0
10
186.1084531
20
-42.8382727
11
167.0584531
21
-42.8382727
0
LINE
8
0
10
167.0584531
20
-42.8882727
11
186.1084531
21
-42.8882727
0
LINE
8
0
10
167.1084531
20
-119.8882727
11
167.1084531
21
-100.8382727
0
LINE
8
0
10
167.1084531
20
-100.8382727
11
148.0584531
21
-100.8382727
0
LINE
8
0
10
148.0584531
20
-100.8382727
11
148.0584531
21
-119.8882727
0
LINE
8
0
10
169.1153521
20
-120.4109541
11
187.5994856
21
-125.0195662
0
LINE
8
0
10
187.5994856
20
-125.0195662
11
192.2080977
21
-106.5354327
0
LINE
8
0
10
192.2080977
20
-106.5354327
11
173.7239642
21
-101.9268206
0
LINE
8
0
10
173.7239642
20
-101.9268206
11
169.1153521
21
-120.4109541
0
LINE
8
0
10
198.8446353
20
-108.8339869
11
189.6090121
21
-125.4954923
0
ENDSEC
0
EOF